<svg width="62" height="62" viewBox="0 0 62 62" fill="none" xmlns="http://www.w3.org/2000/svg">
<path d="M40.0143 31.4673C47.2862 31.4673 53.1813 25.5722 53.1813 18.3003C53.1813 11.0284 47.2862 5.1333 40.0143 5.1333C32.7424 5.1333 26.8473 11.0284 26.8473 18.3003C26.8473 25.5722 32.7424 31.4673 40.0143 31.4673Z" fill="white" stroke="#1DA1F3" stroke-width="1.5" stroke-miterlimit="10"/>
<path d="M16.324 49.896C20.69 49.896 24.2294 46.3567 24.2294 41.9907C24.2294 37.6247 20.69 34.0853 16.324 34.0853C11.958 34.0853 8.4187 37.6247 8.4187 41.9907C8.4187 46.3567 11.958 49.896 16.324 49.896Z" fill="white" stroke="#1DA1F3" stroke-width="1.5" stroke-miterlimit="10"/>
<path d="M42.6579 56.4666C46.2868 56.4666 49.2286 53.5249 49.2286 49.896C49.2286 46.2671 46.2868 43.3253 42.6579 43.3253C39.0291 43.3253 36.0873 46.2671 36.0873 49.896C36.0873 53.5249 39.0291 56.4666 42.6579 56.4666Z" fill="white" stroke="#1DA1F3" stroke-width="1.5" stroke-miterlimit="10"/>
</svg>
