<svg width="64" height="36" viewBox="0 0 64 36" fill="none" xmlns="http://www.w3.org/2000/svg">
<path d="M13.1646 8.06084C10.8367 14.5628 8.5087 21.0765 6.93469 27.9011C8.13171 28.3053 9.38703 28.5462 10.6501 28.6162C11.1281 26.945 11.6062 25.2699 12.0842 23.5949C12.0842 23.5949 12.0143 23.5444 11.9249 23.5249C12.8809 23.7115 13.7437 24.2284 14.4744 24.8735C15.2011 25.5187 15.8074 26.2882 16.4798 27.1782C16.4098 28.1265 17.1016 29.032 17.9955 29.3546C18.8894 29.6772 19.9154 29.4828 20.7432 28.9232C20.6616 29.339 20.6616 29.7704 20.7432 30.1863C20.7782 30.369 20.8287 30.5477 20.9142 30.7109C21.093 31.053 21.4078 31.3095 21.7498 31.4882C22.3327 31.7875 23.0167 31.8847 23.7202 31.7642C23.6502 32.5531 24.2449 33.3032 24.9872 33.5791C25.7334 33.8551 26.5767 33.7229 27.3501 33.4314C27.4706 33.7035 27.5988 33.9833 27.8165 34.1854C28.0652 34.4108 28.4033 34.508 28.7376 34.5469C29.5343 34.6401 30.3621 34.4147 31.1083 33.9678C31.9244 34.4147 32.9621 34.4303 33.7938 34.0105C34.0114 33.9017 34.2174 33.7618 34.3845 33.583C34.7227 33.2216 34.8742 32.7202 34.9014 32.2267C34.9286 31.7331 34.847 31.2395 34.8159 30.7382C35.2279 31.2162 35.6593 31.6903 36.1956 32.0207C36.732 32.351 37.3965 32.5259 38.0028 32.3627C38.508 32.2267 38.9356 31.8613 39.2154 31.4183C39.4952 30.9752 39.6351 30.4544 39.6779 29.8598C39.8838 30.1941 40.1054 30.5166 40.3502 30.8275C40.5795 31.1151 40.8244 31.395 41.1314 31.6048C41.4345 31.8108 41.8076 31.9391 42.173 31.8963C42.7404 31.8341 43.199 31.3716 43.4244 30.8509C43.6498 30.3262 43.6848 29.7471 43.7198 29.1758C43.7392 28.8455 43.7586 28.519 43.7431 28.1809C44.0423 28.7444 44.3416 29.308 44.738 29.8054C45.1344 30.3029 45.6358 30.7343 46.2382 30.948C46.3858 31.0024 46.5374 31.0413 46.6929 31.0763C46.9377 31.1385 47.2214 31.1929 47.4313 31.0491C47.5984 30.9325 47.6684 30.7187 47.6917 30.5166C47.715 30.3145 47.7033 30.1047 47.8199 29.9026C50.0974 29.0437 52.3399 28.0915 54.5124 27.0655C54.73 27.8622 54.971 28.655 55.2935 29.4207C56.9181 29.0437 58.496 28.4607 59.9573 27.7067C61.2437 27.2132 62.5106 26.6691 63.661 25.9423C63.4745 19.5025 62.3824 12.9811 59.4365 7.25246C59.2499 6.89103 59.0556 6.53347 58.7602 6.22644C55.5306 7.34962 52.3826 8.72153 49.359 10.3189C49.4445 10.4821 49.53 10.6453 49.5222 10.828C46.3897 11.0495 43.3233 9.99239 40.3658 8.94694C39.4252 8.61271 38.4731 8.27848 37.482 8.21241C36.5998 8.15412 35.7176 8.30568 34.7304 8.39118C33.6811 7.75381 32.5113 7.34963 31.3298 7.02317C30.6147 6.82496 29.8841 6.65007 29.1456 6.65784C28.4655 6.66561 27.797 6.82884 27.148 7.01928C23.6386 8.04529 20.3584 9.93799 16.7168 10.2761C16.744 10.0313 16.7751 9.78641 16.8023 9.54156C16.8179 9.40943 16.8295 9.26175 16.7557 9.15681C15.5626 8.67489 14.3655 8.19297 13.1646 8.06084Z" fill="white"/>
<path d="M61.9626 25.7948C61.9509 25.7948 61.9393 25.7909 61.9276 25.787L58.7174 24.5783C58.6669 24.5589 58.6397 24.5006 58.6591 24.4501C58.6786 24.3996 58.7369 24.3724 58.7874 24.3918L61.9976 25.6005C62.0481 25.6199 62.0753 25.6782 62.0559 25.7287C62.0403 25.7676 62.0015 25.7948 61.9626 25.7948Z" fill="black"/>
<path d="M63.0468 24.5896C63.0352 24.5896 63.0274 24.5896 63.0157 24.5858C61.2513 23.9834 59.4985 23.2721 57.8118 22.4715C57.7613 22.4482 57.7418 22.3899 57.7652 22.3394C57.7885 22.2889 57.8468 22.2694 57.8973 22.2927C59.5762 23.0895 61.3212 23.7968 63.0818 24.3953C63.1323 24.4147 63.1595 24.4692 63.144 24.5197C63.1284 24.5624 63.0896 24.5896 63.0468 24.5896Z" fill="black"/>
<path d="M63.3231 22.6972C63.3114 22.6972 63.3037 22.6972 63.292 22.6933C61.3294 22.052 59.3667 21.3175 57.4624 20.5169C57.4118 20.4974 57.3885 20.4391 57.4079 20.3886C57.4313 20.3381 57.4896 20.3148 57.5362 20.3342C59.4328 21.1348 61.3915 21.8655 63.3503 22.5067C63.4008 22.5223 63.4319 22.5806 63.4125 22.6311C63.4008 22.67 63.362 22.6972 63.3231 22.6972Z" fill="black"/>
<path d="M63.3231 20.8784C63.3114 20.8784 63.2997 20.8784 63.2881 20.8707C60.999 20.0118 59.2268 19.2733 56.7861 18.2434C56.7356 18.224 56.7122 18.1657 56.7317 18.1152C56.755 18.0647 56.8094 18.0413 56.8599 18.0608C59.2967 19.0907 61.065 19.8291 63.3542 20.6841C63.4047 20.7035 63.4319 20.7618 63.4124 20.8124C63.3969 20.8551 63.3619 20.8784 63.3231 20.8784Z" fill="black"/>
<path d="M62.7515 18.8264C62.7398 18.8264 62.7282 18.8226 62.7126 18.8187L56.1562 16.1448C56.1057 16.1254 56.0824 16.0671 56.1018 16.0165C56.1212 15.966 56.1795 15.9427 56.23 15.9621L62.7865 18.636C62.837 18.6554 62.8603 18.7137 62.8409 18.7643C62.8292 18.8031 62.7903 18.8264 62.7515 18.8264Z" fill="black"/>
<path d="M62.5419 16.8636C62.5302 16.8636 62.5147 16.8597 62.503 16.8558L55.3831 13.7001C55.3326 13.6767 55.3092 13.6184 55.3326 13.5718C55.3559 13.5213 55.4142 13.498 55.4608 13.5213L62.5808 16.6771C62.6313 16.7004 62.6546 16.7587 62.6313 16.8053C62.6157 16.8403 62.5769 16.8636 62.5419 16.8636Z" fill="black"/>
<path d="M61.846 14.3956C61.8344 14.3956 61.8188 14.3917 61.8072 14.3878L54.6212 11.1582C54.5706 11.1348 54.5512 11.0766 54.5706 11.026C54.594 10.9755 54.6523 10.9522 54.7028 10.9755L61.8888 14.2051C61.9393 14.2284 61.9588 14.2867 61.9393 14.3373C61.9199 14.3722 61.8849 14.3956 61.846 14.3956Z" fill="black"/>
<path d="M60.2334 11.1661C60.2217 11.1661 60.21 11.1622 60.1984 11.1583C58.4145 10.4704 56.5918 9.8097 54.7885 9.19176C54.7379 9.17233 54.7107 9.11792 54.7263 9.06739C54.7457 9.01687 54.8001 8.98967 54.8507 9.00522C56.6578 9.62316 58.4806 10.2839 60.2683 10.9718C60.3189 10.9912 60.3461 11.0495 60.3266 11.1C60.3072 11.1389 60.2722 11.1661 60.2334 11.1661Z" fill="black"/>
<path d="M60.0896 8.89237C60.0779 8.89237 60.0624 8.88848 60.0507 8.88459L57.4857 7.81582C57.4351 7.79639 57.4118 7.7381 57.4313 7.68758C57.4507 7.63705 57.509 7.61373 57.5595 7.63316L60.1246 8.70582C60.1751 8.72525 60.1984 8.78356 60.179 8.83408C60.1634 8.86906 60.1284 8.89237 60.0896 8.89237Z" fill="black"/>
<path d="M5.72601 5.66687C8.25996 6.518 10.8211 7.29139 13.2657 8.02204C12.8654 9.71264 11.8355 11.1739 11.1437 12.7674C10.7784 13.6107 10.5063 14.4968 10.2382 15.3752C8.97895 19.5064 7.77416 23.6533 6.61989 27.8118C4.36187 27.0384 2.60521 26.6419 0.18396 26.2105C2.41477 19.2694 4.42794 12.6003 5.72601 5.66687Z" fill="#ACD4F7"/>
<path d="M53.5914 26.2026C53.195 26.3192 52.8102 26.4629 52.4294 26.6184C52.3439 26.6145 52.2545 26.6223 52.1729 26.6417C51.9824 26.6767 51.7998 26.7544 51.621 26.8244C51.4189 26.8943 51.2323 26.9565 51.038 27.042C50.9603 27.0692 50.7271 27.1586 50.6377 27.1819C50.6105 27.1897 50.5872 27.1975 50.5678 27.2053C50.5095 27.2247 50.4512 27.2441 50.3929 27.2558C50.3579 27.2558 50.3229 27.2558 50.2879 27.2558C50.2491 27.248 50.2102 27.2402 50.1713 27.2286C50.0897 27.1508 50.012 27.0654 49.942 26.9799C49.8488 26.8594 49.9537 26.9954 49.9887 27.042C49.9265 26.9565 49.8604 26.8749 49.7866 26.7972C49.7672 26.7739 49.7477 26.7506 49.7322 26.735C49.6661 26.6456 49.6078 26.5485 49.5456 26.4513C49.293 26.0704 49.0676 25.6701 48.8577 25.2659C48.4147 24.4031 48.0066 23.5248 47.5325 22.6814C47.2565 22.1063 47.0233 21.5078 46.6813 20.9675C45.6942 19.4596 44.7342 18.282 43.2613 16.9645C42.3285 16.0201 41.2559 15.2117 40.1055 14.5588C39.3243 14.1274 38.5082 13.6999 37.6026 13.6338C36.9691 13.49 36.8137 14.4306 37.4705 14.4733C38.0651 14.5044 38.7025 14.7726 39.3826 15.1651C39.3204 15.3205 39.3321 15.5032 39.4876 15.6664C40.1172 16.2144 40.8478 16.6381 41.5046 17.1511C41.4735 17.1316 41.8388 17.4387 41.9127 17.5164C41.9904 17.5902 42.0643 17.668 42.1381 17.7457C42.0798 17.804 42.0409 17.8778 42.0409 17.9672C42.0837 18.2393 42.3907 18.5618 42.5306 18.8183C43.2535 19.9182 44.1046 20.9442 44.7187 22.114C45.531 23.7152 46.1217 25.3126 46.3937 27.4579C46.5337 28.1341 46.6153 29.3661 46.3937 29.7159C46.3743 29.7392 46.3549 29.7586 46.3316 29.7781C46.316 29.7897 46.3005 29.7975 46.2888 29.8053C46.2616 29.8131 46.2305 29.8247 46.2033 29.8364C46.1878 29.8403 46.1761 29.848 46.1606 29.848C46.1567 29.848 46.1528 29.848 46.1489 29.8519C46.0867 29.8558 46.0206 29.8519 45.974 29.848C45.9507 29.8441 45.9313 29.8403 45.9079 29.8364C45.6631 29.7742 45.7952 29.8286 45.426 29.6304C44.8586 29.3117 44.3689 30.1473 44.9247 30.4893C46.3238 31.4959 47.3071 31.1383 47.583 29.7742C47.7229 28.9503 47.6296 28.1069 47.4858 27.2869C47.5286 27.4112 47.5674 27.5356 47.6102 27.66C47.6918 28.1458 47.7579 28.6083 47.8239 29.0202C47.8162 29.0319 47.8045 29.0435 47.7929 29.0552C47.6335 29.3078 47.7501 29.6187 47.9716 29.7664C48.0727 29.9258 48.2825 29.9996 48.4652 29.9491C48.6245 29.9024 48.7101 29.8053 48.7528 29.6848C50.2841 29.0824 51.7998 28.4373 53.2067 27.5822C53.537 27.3763 53.5409 27.3568 53.8129 27.2441C53.9567 27.1858 54.1277 27.1042 54.2132 26.9721C54.2832 26.9254 54.3454 26.8671 54.3959 26.7933C54.6602 26.2453 54.015 25.9694 53.5914 26.2026Z" fill="black"/>
<path d="M63.3773 24.6209C63.2957 24.6209 63.218 24.6403 63.148 24.6753C62.7944 24.7802 62.4718 25.0057 62.122 25.1339C61.5041 25.4332 61.2631 25.4914 60.4314 25.8879C59.0012 26.6496 56.6305 27.3919 55.3518 27.9282C54.5124 28.1809 54.8505 29.4245 55.7055 29.2147C57.0424 28.7833 58.3094 28.1575 59.5997 27.6057C60.2798 27.2909 61.574 26.8245 62.6506 26.2959C63.1519 26.0317 63.7776 25.7246 63.8398 25.5692C64.1546 25.2116 63.8476 24.6092 63.3773 24.6209Z" fill="black"/>
<g opacity="0.1294">
<path d="M16.0367 10.8512C15.4965 12.8177 14.5365 14.2673 13.8331 16.4321C13.4056 17.6952 13.083 18.9855 12.8382 20.2952C12.6827 20.8743 12.5661 21.4611 12.4456 22.048C12.3562 22.5649 12.2008 23.1012 12.2979 23.6259C12.4301 24.1389 12.9975 24.3876 13.46 24.2205C13.7515 24.5275 14.0624 24.819 14.3733 25.1066C14.3733 25.0949 14.3733 25.0794 14.3733 25.0677C14.35 24.4886 14.3577 23.9096 14.3927 23.3305C14.2684 22.9224 14.2256 22.6581 14.1984 22.3278C14.3189 21.6865 14.4705 21.0569 14.5482 20.4079C14.8552 18.3248 15.4459 16.2999 16.1183 14.3101C16.3204 13.7155 16.4797 13.1053 16.7362 12.534C16.9189 12.0171 17.222 11.4885 17.222 10.9367C17.1638 10.2915 16.196 10.2255 16.0367 10.8512Z" fill="black"/>
</g>
<g opacity="0.1294">
<path d="M16.6508 26.7777C16.6197 26.9021 16.4953 27.0031 16.3632 26.9915C16.4681 27.0498 16.5808 27.077 16.7052 27.042C16.8956 26.9953 17.0239 26.801 17.0122 26.6106C16.8917 26.6689 16.7712 26.7233 16.6508 26.7777Z" fill="black"/>
</g>
<g opacity="0.1294">
<path d="M12.2979 23.6263C12.2863 23.5485 12.2785 23.4708 12.2668 23.3931C12.2668 23.4747 12.2785 23.5524 12.2979 23.6263Z" fill="black"/>
</g>
<path d="M20.2498 28.3712C20.0205 28.5267 19.7096 28.48 19.111 28.4684C18.7146 28.4295 18.2055 28.4606 17.7625 28.3168C17.471 28.2507 17.195 28.0253 16.8919 28.0642C16.3206 28.1147 16.2662 28.9736 16.8219 29.1135C17.2222 29.269 17.6303 29.4089 18.0501 29.4983C18.4037 29.5799 18.769 29.6615 19.1305 29.5721C19.5774 29.4788 20.0049 29.2884 20.4052 29.0707C20.5685 28.9658 20.79 28.8803 20.8483 28.6821C20.9338 28.3284 20.5102 28.1419 20.2498 28.3712Z" fill="black"/>
<path d="M26.3163 29.1523C26.1181 29.2184 26.0754 29.3272 25.7645 29.4943C25.1388 29.8325 24.8745 29.8985 24.0389 30.0579C23.2461 30.26 23.316 30.2172 22.4416 30.2755C22.1695 30.2872 21.8936 30.2716 21.6215 30.2405C21.4428 30.2095 21.264 30.1395 21.0852 30.1784C20.3662 30.2483 20.3002 31.3093 20.9958 31.492C22.7642 32.005 24.2216 31.492 25.4769 30.7302C25.8539 30.5048 26.2308 30.2639 26.5534 29.9607C26.7283 29.7625 26.7749 29.7975 26.8138 29.5293C26.8177 29.2767 26.5573 29.0824 26.3163 29.1523Z" fill="black"/>
<path d="M33.7433 32.7942C33.3741 32.8447 33.4634 32.8913 33.2691 32.9535C33.1137 32.9962 33.0942 33.0662 32.5346 33.1983C32.1537 33.2644 32.1654 33.2644 32.0643 33.2722C32.1382 33.1789 32.1693 33.0468 32.1459 32.9341C32.1304 32.6931 31.8972 32.5104 31.664 32.5065C31.3725 32.526 31.151 32.7631 30.8867 32.868C30.3349 33.1128 30.467 33.0701 29.7014 33.3305C29.0057 33.5248 28.6482 33.5054 28.38 33.5248C28.1274 33.517 27.8786 33.3538 27.6455 33.3227C28.1118 33.1439 28.5549 32.8952 28.9785 32.6309C29.4643 32.3355 29.8918 31.9702 30.2921 31.5699C30.3815 31.4922 30.4359 31.3795 30.432 31.2629C30.4359 31.1191 30.3504 30.9908 30.2338 30.9131C30.0823 30.8198 29.8685 30.8509 29.7441 30.9753C29.7713 30.9559 29.8374 30.9015 29.7985 30.9287C29.6003 31.053 29.4021 31.1735 29.2 31.2901C28.0458 32.0324 26.5223 32.4677 25.5274 32.6193C25.2942 32.6465 25.0571 32.6737 24.82 32.6504C24.8006 32.6504 24.7889 32.6465 24.7812 32.6465C24.7734 32.6465 24.7656 32.6426 24.754 32.6426C24.5752 32.627 24.4003 32.5376 24.2215 32.561C23.794 32.5998 23.7551 33.2411 24.1671 33.346C24.5402 33.4782 24.9211 33.6025 25.3175 33.6414C25.7333 33.688 26.157 33.6258 26.5689 33.5792C26.7943 33.5598 27.012 33.517 27.2257 33.4587C27.0236 33.6764 27.0314 34.0883 27.3307 34.2477C28.4072 34.7918 29.5692 34.6791 30.6419 34.1933C30.8362 34.1155 31.0267 34.0223 31.2093 33.9134C31.2171 34.2399 31.4697 34.5625 31.835 34.5508C32.5074 34.4653 33.2303 34.4265 33.7977 34.0223C33.9648 33.894 34.1863 33.7813 34.2602 33.5714C34.4351 33.2255 34.1319 32.7864 33.7433 32.7942Z" fill="black"/>
<path d="M39.1728 30.2952C38.7609 30.5051 38.858 30.544 38.5937 30.7111C38.1973 30.987 38.2479 30.9559 37.6727 31.1036C37.2024 31.1852 37.4861 31.1658 37.078 31.1736C37.0314 31.1736 36.9848 31.1697 36.9342 31.1658C36.8837 31.158 36.8177 31.1425 36.7671 31.1308C36.4251 31.0764 36.0598 30.8199 35.7256 31.022C35.2825 31.2629 35.3758 31.9819 35.8655 32.0985C36.3163 32.2307 36.7788 32.3628 37.2529 32.3317C37.8204 32.2929 38.3722 32.083 38.8425 31.7721C39.0718 31.6127 39.2855 31.4339 39.4954 31.2474C39.647 31.123 39.7985 30.9715 39.7869 30.7655C39.8063 30.4507 39.476 30.2058 39.1728 30.2952Z" fill="black"/>
<path d="M43.8401 28.6588C43.844 28.41 43.6769 28.1691 43.4282 28.1069C43.4126 28.103 43.401 28.103 43.3893 28.103C43.3854 27.6366 43.401 27.1664 43.2844 26.7117C43.1134 26.0043 42.7247 25.3786 42.406 24.7335C42.1107 24.0495 41.7298 23.3927 41.2401 22.833C41.0302 22.6504 40.6766 22.8291 40.6843 23.1051C40.7038 23.3421 40.9175 23.5054 41.0263 23.7075C41.6326 24.5897 41.8347 25.2504 42.1262 26.3075C42.4799 27.419 42.5421 27.9553 42.4371 29.1018C42.4371 29.1135 42.4332 29.1251 42.4332 29.1368C42.4255 29.1873 42.4138 29.2417 42.4021 29.2923C42.3983 29.3195 42.3866 29.3583 42.3711 29.405C42.3128 29.4982 42.2506 29.5915 42.1884 29.6848C42.1068 29.782 41.9435 29.9763 41.8503 30.0618C41.8308 30.0734 41.8075 30.0851 41.7881 30.0968C41.6054 30.1123 41.4694 30.1084 40.9836 29.9491C40.8437 29.8985 40.8165 29.883 40.9719 29.9491C40.7271 29.8636 40.5017 29.6926 40.2491 29.6498C39.6739 29.5449 39.3902 30.3766 39.8993 30.6603C40.0781 30.7536 40.2763 30.8429 40.4512 30.9168C40.4861 31.1033 40.5911 31.2782 40.7737 31.3793C40.8165 31.4026 40.8592 31.422 40.9059 31.4415C40.9214 31.6708 41.0574 31.8923 41.3528 31.9778C41.5977 32.0439 41.8542 32.1099 42.1107 32.0555C42.2 32.04 42.3749 31.9661 42.3983 31.9506C42.6548 31.8418 42.919 31.6902 43.0279 31.4298C43.09 31.2977 43.0939 31.1655 43.0551 31.0489C43.1522 30.9518 43.2066 30.8196 43.2183 30.6836C43.4709 30.3494 43.6536 29.9607 43.7468 29.5604C43.8013 29.2806 43.8362 28.9969 43.8401 28.7093C43.8401 28.6976 43.8401 28.6899 43.8401 28.6782C43.8401 28.6704 43.8401 28.6665 43.8401 28.6588Z" fill="black"/>
<path d="M10.4636 28.9386C10.4441 28.9386 10.4286 28.9386 10.4092 28.9347C8.58255 28.6044 6.69374 28.2585 4.83214 27.7494C4.10927 27.5084 3.4136 27.3491 2.67906 27.1819C1.87846 26.9993 1.04676 26.8088 0.199519 26.5135C0.0440622 26.4591 -0.0375518 26.2919 0.0168582 26.1365C0.0712682 25.981 0.238384 25.9033 0.393841 25.9538C1.20999 26.2414 2.02225 26.4241 2.80731 26.6029C3.5263 26.7661 4.26861 26.9371 5.00315 27.1819C6.73261 27.6522 8.51259 27.9864 10.2421 28.3012C10.9882 25.2815 12.0026 22.3317 12.9859 19.479C13.5688 17.7807 14.1751 16.0279 14.7231 14.2518C14.727 14.244 14.727 14.2362 14.7309 14.2285C14.9135 13.7699 15.1118 13.3152 15.3061 12.8799C15.8269 11.6984 16.3165 10.5791 16.5575 9.28492C16.5497 9.27326 16.5264 9.25383 16.5148 9.24995C16.4798 9.24995 16.4487 9.24218 16.4137 9.23052C14.7969 8.61646 13.1064 8.16563 11.4702 7.73424C9.53861 7.22123 7.5371 6.69267 5.59388 5.87264C5.44231 5.81045 5.37236 5.63557 5.43454 5.484C5.49672 5.33243 5.67161 5.26247 5.82318 5.32466C7.72753 6.12526 9.70573 6.64993 11.6217 7.15906C13.2579 7.59434 14.9485 8.04127 16.5808 8.65921C16.884 8.69419 17.1482 8.9779 17.1482 9.28881C17.1482 9.30825 17.1482 9.3238 17.1444 9.34323C16.8917 10.7268 16.3593 11.9432 15.8424 13.1169C15.6559 13.5445 15.4615 13.9875 15.2789 14.4344C14.727 16.2144 14.1207 17.9672 13.5377 19.6656C12.4845 22.7281 11.4896 25.6196 10.7434 28.7054C10.7162 28.8492 10.5957 28.9386 10.4636 28.9386Z" fill="black"/>
<path d="M6.71309 27.9984C6.68978 27.9984 6.66646 27.9945 6.63925 27.9906C6.47991 27.9517 6.38275 27.7885 6.4255 27.6331C8.12776 20.8474 10.5218 13.638 12.9975 7.84724C13.0635 7.69567 13.2345 7.62571 13.3861 7.69178C13.5377 7.75785 13.6076 7.92885 13.5416 8.08042C11.0776 13.8401 8.69517 21.0222 7.00069 27.7769C6.96571 27.909 6.84523 27.9984 6.71309 27.9984Z" fill="black"/>
<path d="M55.2471 29.8015C55.2004 29.8015 55.1538 29.7899 55.111 29.7704C55.0372 29.7316 54.9828 29.6694 54.9633 29.5878C53.7896 25.542 52.546 21.5001 51.2285 17.2212C50.5445 15.002 49.841 12.709 49.1376 10.3888C49.0948 10.2528 49.157 10.109 49.2814 10.0429C52.2817 8.4184 55.4336 7.03095 58.6555 5.91554C58.8109 5.86113 58.978 5.94275 59.0324 6.0982C59.0869 6.25366 59.0052 6.42078 58.8498 6.47519C55.7329 7.55173 52.682 8.88866 49.775 10.4471C50.4551 12.6896 51.1352 14.901 51.7959 17.0463C53.0823 21.2203 54.2949 25.1728 55.4453 29.1214C58.1969 28.1381 60.9329 27.0111 63.5796 25.7791C63.7272 25.7091 63.9021 25.7752 63.9721 25.9229C64.042 26.0706 63.976 26.2455 63.8283 26.3154C61.0689 27.6018 58.2163 28.7716 55.3442 29.786C55.3131 29.7976 55.2782 29.8015 55.2471 29.8015Z" fill="black"/>
<path d="M58.807 28.2545C58.6748 28.2545 58.5543 28.1651 58.5194 28.033C56.7899 21.5349 54.8234 15.0057 52.6625 8.6358C52.612 8.48035 52.6936 8.31323 52.8491 8.25882C53.0045 8.2083 53.1716 8.28992 53.226 8.44537C55.3869 14.8308 57.3612 21.3677 59.0907 27.8814C59.1334 28.0407 59.0401 28.2001 58.8808 28.2428C58.8575 28.2506 58.8342 28.2545 58.807 28.2545Z" fill="black"/>
<path d="M26.0406 19.4405C25.3604 19.4405 24.5637 19.1451 24.2062 18.4533C23.5688 17.2174 24.7658 15.83 25.1583 15.3714C26.7829 13.4865 28.4618 11.5394 30.5527 10.0703C32.9079 8.41467 35.4846 7.66459 37.8048 7.95996C38.9901 8.11153 40.1211 8.52738 41.2093 8.93157C41.563 9.06371 41.9244 9.19585 42.2858 9.32021C44.5633 10.1014 46.9379 10.5133 49.3436 10.5483C49.5068 10.5522 49.639 10.6843 49.6351 10.8476C49.6312 11.0108 49.499 11.1391 49.3397 11.1391H49.3358C46.8679 11.1041 44.4311 10.6805 42.0954 9.87986C41.7301 9.75549 41.3609 9.61946 41.0072 9.48732C39.9462 9.0948 38.8502 8.6906 37.7309 8.5468C35.5584 8.27087 33.1294 8.98598 30.8947 10.5561C28.8621 11.9824 27.2104 13.9023 25.6092 15.7561C24.7153 16.7938 24.4277 17.5866 24.7347 18.1774C24.9951 18.6787 25.6325 18.8731 26.1455 18.842C26.7362 18.807 27.2881 18.5466 27.9022 18.2396C28.3102 18.0336 28.7183 17.8315 29.1225 17.6294C31.6137 16.3896 33.965 15.2198 36.1958 13.6458C36.3279 13.5525 36.5145 13.5836 36.6078 13.7158C36.701 13.8479 36.6699 14.0345 36.5378 14.1277C34.2681 15.725 31.8974 16.9065 29.3868 18.1541C28.9826 18.3562 28.5745 18.5583 28.1664 18.7642C27.5213 19.0907 26.88 19.3861 26.1805 19.4288C26.1338 19.4405 26.0872 19.4405 26.0406 19.4405Z" fill="black"/>
<path d="M47.9325 30.2292C47.8159 30.2292 47.7071 30.1592 47.6605 30.0465C47.5983 29.895 47.6682 29.724 47.8198 29.6618C49.9496 28.7834 52.0988 27.8701 54.2091 26.949C54.3607 26.883 54.5317 26.9529 54.5977 27.1006C54.6638 27.2522 54.5939 27.4232 54.4462 27.4893C52.332 28.4142 50.1789 29.3275 48.0491 30.2059C48.0102 30.2214 47.9714 30.2292 47.9325 30.2292Z" fill="black"/>
<path d="M47.1086 31.4185C47.0464 31.4185 46.9881 31.4146 46.9376 31.4068C45.9543 31.3019 44.9866 30.649 44.2831 29.6191C43.8323 28.9584 43.5214 28.2199 43.2182 27.5087C43.125 27.2833 43.0278 27.0579 42.9268 26.8364C42.1223 25.037 41.0379 23.393 39.6971 21.9472C39.5844 21.8268 39.5922 21.6402 39.7127 21.5275C39.8332 21.4148 40.0197 21.4226 40.1324 21.5431C41.516 23.0354 42.6392 24.7338 43.467 26.5915C43.568 26.8169 43.6652 27.0462 43.7623 27.2755C44.0655 27.9945 44.3531 28.6708 44.7689 29.2848C45.3752 30.1748 46.1875 30.7306 46.9958 30.82C47.0425 30.8238 47.1824 30.8394 47.2485 30.8005C47.3223 30.7539 47.3573 30.5984 47.3495 30.338C47.2407 26.9063 46.1136 23.4552 44.1704 20.6259C42.2272 17.7965 39.4134 15.5035 36.2499 14.1705C36.0983 14.1083 36.0283 13.9334 36.0905 13.7819C36.1527 13.6303 36.3276 13.5603 36.4792 13.6225C39.7477 14.9983 42.6508 17.3651 44.6601 20.2877C46.6655 23.2103 47.8353 26.7742 47.9441 30.3147C47.9519 30.5129 47.9675 31.0454 47.5672 31.2941C47.4195 31.3952 47.2524 31.4185 47.1086 31.4185Z" fill="black"/>
<path d="M32.3246 34.6636C31.9126 34.6636 31.3802 34.5975 30.805 34.1739C30.6729 34.0768 30.6457 33.8902 30.7428 33.762C30.84 33.6298 31.0265 33.6026 31.1548 33.6998C31.7067 34.104 32.1692 34.0845 32.5772 34.069L32.62 34.0651C33.234 34.0418 33.8947 33.727 34.2639 33.2839C34.4233 33.0935 34.6059 32.7904 34.5554 32.4212C34.5554 32.4095 34.5515 32.3939 34.5515 32.3823C34.5515 31.7488 34.466 31.1075 34.3883 30.6178C34.3689 30.4896 34.4349 30.3613 34.5515 30.303C34.6681 30.2447 34.8119 30.2758 34.8974 30.373C35.3444 30.8666 35.8107 31.3796 36.3743 31.7177C36.965 32.0714 37.6179 32.1685 38.1232 31.9859C38.8188 31.7294 39.5339 30.5207 39.3785 29.86C39.3396 29.7006 39.4368 29.5413 39.5961 29.5024C39.7555 29.4675 39.9148 29.5607 39.9537 29.7201C40.2024 30.7539 39.2308 32.2074 38.3291 32.5377C37.6451 32.7865 36.8251 32.6738 36.0711 32.2229C35.7058 32.0053 35.3871 31.7332 35.0918 31.4418C35.1228 31.7371 35.1423 32.0481 35.1423 32.359C35.1967 32.8137 35.049 33.2606 34.7148 33.6609C34.2367 34.2322 33.4206 34.6209 32.6394 34.652H32.5967C32.5189 34.6597 32.4257 34.6636 32.3246 34.6636Z" fill="black"/>
<path d="M42.0642 32.2384C41.8194 32.2384 41.5862 32.1724 41.3647 32.0869C40.2454 31.6516 39.6507 30.4351 39.0794 29.2536C38.683 28.4375 38.2711 27.5903 37.7075 27.0928C37.587 26.984 37.5754 26.7974 37.6842 26.6731C37.793 26.5526 37.9796 26.5409 38.1039 26.6497C38.753 27.2288 39.1921 28.1266 39.6119 28.9933C40.1599 30.1203 40.6806 31.1852 41.5823 31.535C41.9709 31.6866 42.4529 31.8731 43.0941 30.7888C43.269 30.4934 43.3156 30.1203 43.3428 29.7589C43.4089 28.8339 43.1602 27.8856 42.9192 26.9645C42.8842 26.8246 42.8454 26.6847 42.8104 26.5448C42.7715 26.3855 42.8648 26.2261 43.0242 26.1873C43.1835 26.1484 43.3428 26.2417 43.3817 26.401C43.4167 26.5409 43.4517 26.677 43.4905 26.8169C43.7432 27.7846 44.0035 28.7834 43.9297 29.8016C43.8986 30.233 43.8403 30.6916 43.6032 31.0919C43.0708 31.978 42.5461 32.2384 42.0642 32.2384Z" fill="black"/>
<path d="M22.8145 32.0596C22.7873 32.0596 22.764 32.0596 22.7368 32.0596C21.6292 32.0324 20.6692 31.3717 20.4011 30.4545C20.3 30.1086 20.3 29.7549 20.3505 29.4168C19.7482 29.7899 18.9942 29.9492 18.2752 29.8171C17.1753 29.6189 16.2504 28.7172 16.0794 27.6718C16.0094 27.2404 16.1454 26.9994 16.2698 26.8751C16.3864 26.7585 16.5729 26.7624 16.6895 26.879C16.8061 26.9956 16.8022 27.1821 16.6856 27.2987C16.6584 27.3259 16.6351 27.4153 16.6623 27.5785C16.7984 28.3869 17.5173 29.0865 18.3801 29.238C19.2196 29.3896 20.1174 29.0515 20.6109 28.3986C20.6926 28.2936 20.8325 28.2548 20.9568 28.3014C21.0657 28.2431 21.1628 28.2042 21.225 28.1809C22.4104 27.7184 23.6501 27.4347 24.9171 27.3376C25.9353 27.2559 26.6155 27.5047 26.9303 28.0682C27.0818 28.3364 27.1363 28.6706 27.0857 29.0515C27.0235 29.5412 26.8137 30.0153 26.4872 30.3884C26.1724 30.7498 25.7721 31.0025 25.3835 31.224C24.7111 31.6165 23.8017 32.0596 22.8145 32.0596ZM21.054 28.9543C20.9219 29.4557 20.8558 29.8871 20.9724 30.2913C21.19 31.0413 22.0334 31.4533 22.7524 31.4688C23.6229 31.4922 24.4624 31.0763 25.0998 30.711C25.4418 30.5167 25.7954 30.2951 26.0481 29.9998C26.2968 29.7161 26.4561 29.3507 26.5028 28.9776C26.5261 28.8027 26.5261 28.554 26.4173 28.3558C26.1763 27.9244 25.4923 27.8856 24.9637 27.9244C23.7551 28.0177 22.5697 28.2897 21.4388 28.7289C21.2561 28.8066 21.1278 28.8805 21.054 28.9543Z" fill="black"/>
<path d="M25.7179 34.061C25.2554 34.061 24.8202 33.9522 24.4548 33.7346C23.7359 33.311 23.3045 32.4676 23.3783 31.6398C23.3938 31.4766 23.5376 31.36 23.7009 31.3716C23.8641 31.3872 23.9846 31.531 23.969 31.6942C23.9146 32.2927 24.2372 32.9223 24.758 33.2294C25.2593 33.5247 25.9395 33.5519 26.6274 33.3071C27.2725 33.0778 27.836 32.658 28.4073 32.215C29.2157 31.5815 29.9775 30.8703 30.0474 29.9764C30.0513 29.922 30.0552 29.8482 30.0358 29.8015C30.0163 29.7588 29.9619 29.7082 29.8725 29.6538C29.445 29.3973 28.8659 29.3352 28.2441 29.4751C27.6961 29.5994 27.2453 29.8326 26.7245 30.1008L26.6351 30.1474C26.4913 30.2213 26.3126 30.1668 26.2348 30.0192C26.161 29.8754 26.2154 29.6966 26.3631 29.6189L26.4525 29.5722C26.9849 29.2963 27.4901 29.0359 28.112 28.896C28.8815 28.7211 29.616 28.8105 30.1757 29.1447C30.3039 29.2224 30.4866 29.3507 30.5799 29.5645C30.6498 29.7277 30.6498 29.8948 30.6381 30.0192C30.5526 31.1423 29.6899 31.9585 28.7727 32.6775C28.1897 33.1361 27.5562 33.6025 26.8294 33.8628C26.4525 33.995 26.0794 34.061 25.7179 34.061Z" fill="black"/>
<path d="M29.1731 34.9043C28.7495 34.9043 28.3298 34.8071 27.9489 34.6205C27.5097 34.4029 27.0511 33.9637 27.0861 33.3924C27.0978 33.2292 27.2377 33.1048 27.4009 33.1165C27.5641 33.1282 27.6885 33.2681 27.6769 33.4313C27.6574 33.715 27.9528 33.9637 28.2093 34.092C28.6135 34.2941 29.0799 34.3602 29.5229 34.2863C30.2302 34.1658 30.8365 33.7034 31.3418 33.2681C31.9092 32.7745 32.154 32.3703 32.1074 31.9855C32.053 31.5386 31.5672 31.2394 31.1474 31.216C30.7277 31.1927 30.2924 31.3676 29.7872 31.764C29.6589 31.8651 29.4724 31.8418 29.3713 31.7135C29.2703 31.5852 29.2936 31.3987 29.4219 31.2977C29.8144 30.9906 30.4284 30.5825 31.1785 30.6253C31.8509 30.6642 32.601 31.1539 32.6942 31.9156C32.7875 32.6968 32.189 33.3186 31.7304 33.715C31.198 34.1775 30.479 34.7216 29.624 34.8693C29.4763 34.8887 29.3247 34.9043 29.1731 34.9043Z" fill="black"/>
<path d="M20.883 28.6822C20.7431 28.6822 20.6148 28.5812 20.5915 28.4374C20.4866 27.8311 19.822 27.4697 19.4334 27.3064C18.3024 26.8284 17.3192 26.844 16.5108 27.3531C16.3786 27.4347 16.2037 27.4036 16.1144 27.2753C14.9834 25.7052 13.5726 24.5432 11.9209 23.8242C11.7693 23.7581 11.7033 23.5832 11.7693 23.4355C11.8354 23.284 12.0103 23.2179 12.158 23.284C13.833 24.0146 15.271 25.1689 16.4369 26.7157C17.3658 26.2338 18.4501 26.2493 19.6627 26.7623C20.5216 27.1238 21.0618 27.6834 21.1745 28.3402C21.2017 28.4996 21.0929 28.655 20.9335 28.6822C20.918 28.6783 20.8986 28.6822 20.883 28.6822Z" fill="black"/>
<path d="M16.604 10.6531C16.468 10.6531 16.3475 10.5599 16.3164 10.4238C16.2815 10.2645 16.3786 10.1051 16.538 10.0702C19.8103 9.31231 22.8223 8.27463 25.3368 7.35743L25.5623 7.27582C26.5183 6.92604 27.5055 6.5646 28.547 6.44801C30.9488 6.18373 33.1602 7.21363 35.1112 8.12306C35.2589 8.19301 35.325 8.36791 35.255 8.51559C35.1851 8.66328 35.0102 8.72934 34.8625 8.65939C32.9814 7.78105 30.8478 6.78613 28.6131 7.03486C27.6454 7.1398 26.6893 7.48957 25.7682 7.82768L25.5428 7.90931C23.0128 8.83428 19.9813 9.87972 16.674 10.6453C16.6507 10.6531 16.6274 10.6531 16.604 10.6531Z" fill="black"/>
<path d="M22.4728 5.52311C22.3756 5.52311 22.2784 5.47259 22.224 5.38708C22.1385 5.24717 22.1774 5.06451 22.3173 4.97901C25.0067 3.27675 28.2363 2.44117 31.4116 2.61606C31.5748 2.62383 31.6992 2.76374 31.6914 2.92697C31.6836 3.0902 31.5437 3.21457 31.3805 3.2068C28.3257 3.03579 25.2205 3.84028 22.636 5.47647C22.5816 5.50756 22.5272 5.52311 22.4728 5.52311Z" fill="black"/>
<path d="M20.6186 2.62763C20.5215 2.62763 20.4282 2.58099 20.3699 2.4916C20.2805 2.35558 20.3194 2.17292 20.4554 2.08353C22.045 1.04974 23.8716 0.330745 25.7371 0.00428489C25.8964 -0.0229201 26.0519 0.0820175 26.0791 0.245248C26.1063 0.404591 26.0013 0.560044 25.8381 0.587249C24.0504 0.90205 22.2976 1.58995 20.7741 2.58099C20.7275 2.61208 20.6731 2.62763 20.6186 2.62763Z" fill="black"/>
<path d="M39.5535 35.1105C39.3942 35.1105 39.262 34.9822 39.2581 34.8229C39.2543 34.6596 39.3825 34.5236 39.5457 34.5197C41.2674 34.4653 42.9502 33.8357 44.2833 32.7397C44.4115 32.6348 44.5942 32.6542 44.6991 32.7825C44.8041 32.9069 44.7846 33.0934 44.6564 33.1983C43.2223 34.3759 41.4151 35.0561 39.5613 35.1144C39.5613 35.1105 39.5574 35.1105 39.5535 35.1105Z" fill="black"/>
<path d="M61.9626 25.7948C61.9509 25.7948 61.9393 25.7909 61.9276 25.787L58.7174 24.5783C58.6669 24.5589 58.6397 24.5006 58.6591 24.4501C58.6786 24.3996 58.7369 24.3724 58.7874 24.3918L61.9976 25.6005C62.0481 25.6199 62.0753 25.6782 62.0559 25.7287C62.0403 25.7676 62.0015 25.7948 61.9626 25.7948Z" fill="black"/>
<path d="M63.0468 24.5896C63.0352 24.5896 63.0274 24.5896 63.0157 24.5858C61.2513 23.9834 59.4985 23.2721 57.8118 22.4715C57.7613 22.4482 57.7418 22.3899 57.7652 22.3394C57.7885 22.2889 57.8468 22.2694 57.8973 22.2927C59.5762 23.0895 61.3212 23.7968 63.0818 24.3953C63.1323 24.4147 63.1595 24.4692 63.144 24.5197C63.1284 24.5624 63.0896 24.5896 63.0468 24.5896Z" fill="black"/>
<path d="M63.3231 22.6972C63.3114 22.6972 63.3037 22.6972 63.292 22.6933C61.3294 22.052 59.3667 21.3175 57.4624 20.5169C57.4118 20.4974 57.3885 20.4391 57.4079 20.3886C57.4313 20.3381 57.4896 20.3148 57.5362 20.3342C59.4328 21.1348 61.3915 21.8655 63.3503 22.5067C63.4008 22.5223 63.4319 22.5806 63.4125 22.6311C63.4008 22.67 63.362 22.6972 63.3231 22.6972Z" fill="black"/>
<path d="M63.3231 20.8784C63.3114 20.8784 63.2997 20.8784 63.2881 20.8707C60.999 20.0118 59.2268 19.2733 56.7861 18.2434C56.7356 18.224 56.7122 18.1657 56.7317 18.1152C56.755 18.0647 56.8094 18.0413 56.8599 18.0608C59.2967 19.0907 61.065 19.8291 63.3542 20.6841C63.4047 20.7035 63.4319 20.7618 63.4124 20.8124C63.3969 20.8551 63.3619 20.8784 63.3231 20.8784Z" fill="black"/>
<path d="M62.7515 18.8264C62.7398 18.8264 62.7282 18.8226 62.7126 18.8187L56.1562 16.1448C56.1057 16.1254 56.0824 16.0671 56.1018 16.0165C56.1212 15.966 56.1795 15.9427 56.23 15.9621L62.7865 18.636C62.837 18.6554 62.8603 18.7137 62.8409 18.7643C62.8292 18.8031 62.7903 18.8264 62.7515 18.8264Z" fill="black"/>
<path d="M62.5419 16.8636C62.5302 16.8636 62.5147 16.8597 62.503 16.8558L55.3831 13.7001C55.3326 13.6767 55.3092 13.6184 55.3326 13.5718C55.3559 13.5213 55.4142 13.498 55.4608 13.5213L62.5808 16.6771C62.6313 16.7004 62.6546 16.7587 62.6313 16.8053C62.6157 16.8403 62.5769 16.8636 62.5419 16.8636Z" fill="black"/>
<path d="M61.846 14.3956C61.8344 14.3956 61.8188 14.3917 61.8072 14.3878L54.6212 11.1582C54.5706 11.1348 54.5512 11.0766 54.5706 11.026C54.594 10.9755 54.6523 10.9522 54.7028 10.9755L61.8888 14.2051C61.9393 14.2284 61.9588 14.2867 61.9393 14.3373C61.9199 14.3722 61.8849 14.3956 61.846 14.3956Z" fill="black"/>
<path d="M60.2334 11.1661C60.2217 11.1661 60.21 11.1622 60.1984 11.1583C58.4145 10.4704 56.5918 9.8097 54.7885 9.19176C54.7379 9.17233 54.7107 9.11792 54.7263 9.06739C54.7457 9.01687 54.8001 8.98967 54.8507 9.00522C56.6578 9.62316 58.4806 10.2839 60.2683 10.9718C60.3189 10.9912 60.3461 11.0495 60.3266 11.1C60.3072 11.1389 60.2722 11.1661 60.2334 11.1661Z" fill="black"/>
<path d="M60.0896 8.89237C60.0779 8.89237 60.0624 8.88848 60.0507 8.88459L57.4857 7.81582C57.4351 7.79639 57.4118 7.7381 57.4313 7.68758C57.4507 7.63705 57.509 7.61373 57.5595 7.63316L60.1246 8.70582C60.1751 8.72525 60.1984 8.78356 60.179 8.83408C60.1634 8.86906 60.1284 8.89237 60.0896 8.89237Z" fill="black"/>
<path d="M5.72601 5.66687C8.25996 6.518 10.8211 7.29139 13.2657 8.02204C12.8654 9.71264 11.8355 11.1739 11.1437 12.7674C10.7784 13.6107 10.5063 14.4968 10.2382 15.3752C8.97895 19.5064 7.77416 23.6533 6.61989 27.8118C4.36187 27.0384 2.60521 26.6419 0.18396 26.2105C2.41477 19.2694 4.42794 12.6003 5.72601 5.66687Z" fill="#1DA1F3"/>
<path d="M53.5914 26.2026C53.195 26.3192 52.8102 26.4629 52.4294 26.6184C52.3439 26.6145 52.2545 26.6223 52.1729 26.6417C51.9824 26.6767 51.7998 26.7544 51.621 26.8244C51.4189 26.8943 51.2323 26.9565 51.038 27.042C50.9603 27.0692 50.7271 27.1586 50.6377 27.1819C50.6105 27.1897 50.5872 27.1975 50.5678 27.2053C50.5095 27.2247 50.4512 27.2441 50.3929 27.2558C50.3579 27.2558 50.3229 27.2558 50.2879 27.2558C50.2491 27.248 50.2102 27.2402 50.1713 27.2286C50.0897 27.1508 50.012 27.0654 49.942 26.9799C49.8488 26.8594 49.9537 26.9954 49.9887 27.042C49.9265 26.9565 49.8604 26.8749 49.7866 26.7972C49.7672 26.7739 49.7477 26.7506 49.7322 26.735C49.6661 26.6456 49.6078 26.5485 49.5456 26.4513C49.293 26.0704 49.0676 25.6701 48.8577 25.2659C48.4147 24.4031 48.0066 23.5248 47.5325 22.6814C47.2565 22.1063 47.0233 21.5078 46.6813 20.9675C45.6942 19.4596 44.7342 18.282 43.2613 16.9645C42.3285 16.0201 41.2559 15.2117 40.1055 14.5588C39.3243 14.1274 38.5082 13.6999 37.6026 13.6338C36.9691 13.49 36.8137 14.4306 37.4705 14.4733C38.0651 14.5044 38.7025 14.7726 39.3826 15.1651C39.3204 15.3205 39.3321 15.5032 39.4876 15.6664C40.1172 16.2144 40.8478 16.6381 41.5046 17.1511C41.4735 17.1316 41.8388 17.4387 41.9127 17.5164C41.9904 17.5902 42.0643 17.668 42.1381 17.7457C42.0798 17.804 42.0409 17.8778 42.0409 17.9672C42.0837 18.2393 42.3907 18.5618 42.5306 18.8183C43.2535 19.9182 44.1046 20.9442 44.7187 22.114C45.531 23.7152 46.1217 25.3126 46.3937 27.4579C46.5337 28.1341 46.6153 29.3661 46.3937 29.7159C46.3743 29.7392 46.3549 29.7586 46.3316 29.7781C46.316 29.7897 46.3005 29.7975 46.2888 29.8053C46.2616 29.8131 46.2305 29.8247 46.2033 29.8364C46.1878 29.8403 46.1761 29.848 46.1606 29.848C46.1567 29.848 46.1528 29.848 46.1489 29.8519C46.0867 29.8558 46.0206 29.8519 45.974 29.848C45.9507 29.8441 45.9313 29.8403 45.9079 29.8364C45.6631 29.7742 45.7952 29.8286 45.426 29.6304C44.8586 29.3117 44.3689 30.1473 44.9247 30.4893C46.3238 31.4959 47.3071 31.1383 47.583 29.7742C47.7229 28.9503 47.6296 28.1069 47.4858 27.2869C47.5286 27.4112 47.5674 27.5356 47.6102 27.66C47.6918 28.1458 47.7579 28.6083 47.8239 29.0202C47.8162 29.0319 47.8045 29.0435 47.7929 29.0552C47.6335 29.3078 47.7501 29.6187 47.9716 29.7664C48.0727 29.9258 48.2825 29.9996 48.4652 29.9491C48.6245 29.9024 48.7101 29.8053 48.7528 29.6848C50.2841 29.0824 51.7998 28.4373 53.2067 27.5822C53.537 27.3763 53.5409 27.3568 53.8129 27.2441C53.9567 27.1858 54.1277 27.1042 54.2132 26.9721C54.2832 26.9254 54.3454 26.8671 54.3959 26.7933C54.6602 26.2453 54.015 25.9694 53.5914 26.2026Z" fill="black"/>
<path d="M63.3773 24.6209C63.2957 24.6209 63.218 24.6403 63.148 24.6753C62.7944 24.7802 62.4718 25.0057 62.122 25.1339C61.5041 25.4332 61.2631 25.4914 60.4314 25.8879C59.0012 26.6496 56.6305 27.3919 55.3518 27.9282C54.5124 28.1809 54.8505 29.4245 55.7055 29.2147C57.0424 28.7833 58.3094 28.1575 59.5997 27.6057C60.2798 27.2909 61.574 26.8245 62.6506 26.2959C63.1519 26.0317 63.7776 25.7246 63.8398 25.5692C64.1546 25.2116 63.8476 24.6092 63.3773 24.6209Z" fill="black"/>
<g opacity="0.1294">
<path d="M16.0367 10.8512C15.4965 12.8177 14.5365 14.2673 13.8331 16.4321C13.4056 17.6952 13.083 18.9855 12.8382 20.2952C12.6827 20.8743 12.5661 21.4611 12.4456 22.048C12.3562 22.5649 12.2008 23.1012 12.2979 23.6259C12.4301 24.1389 12.9975 24.3876 13.46 24.2205C13.7515 24.5275 14.0624 24.819 14.3733 25.1066C14.3733 25.0949 14.3733 25.0794 14.3733 25.0677C14.35 24.4886 14.3577 23.9096 14.3927 23.3305C14.2684 22.9224 14.2256 22.6581 14.1984 22.3278C14.3189 21.6865 14.4705 21.0569 14.5482 20.4079C14.8552 18.3248 15.4459 16.2999 16.1183 14.3101C16.3204 13.7155 16.4797 13.1053 16.7362 12.534C16.9189 12.0171 17.222 11.4885 17.222 10.9367C17.1638 10.2915 16.196 10.2255 16.0367 10.8512Z" fill="black"/>
</g>
<g opacity="0.1294">
<path d="M16.6508 26.7777C16.6197 26.9021 16.4953 27.0031 16.3632 26.9915C16.4681 27.0498 16.5808 27.077 16.7052 27.042C16.8956 26.9953 17.0239 26.801 17.0122 26.6106C16.8917 26.6689 16.7712 26.7233 16.6508 26.7777Z" fill="black"/>
</g>
<g opacity="0.1294">
<path d="M12.2979 23.6263C12.2863 23.5485 12.2785 23.4708 12.2668 23.3931C12.2668 23.4747 12.2785 23.5524 12.2979 23.6263Z" fill="black"/>
</g>
<path d="M20.2498 28.3712C20.0205 28.5267 19.7096 28.48 19.111 28.4684C18.7146 28.4295 18.2055 28.4606 17.7625 28.3168C17.471 28.2507 17.195 28.0253 16.8919 28.0642C16.3206 28.1147 16.2662 28.9736 16.8219 29.1135C17.2222 29.269 17.6303 29.4089 18.0501 29.4983C18.4037 29.5799 18.769 29.6615 19.1305 29.5721C19.5774 29.4788 20.0049 29.2884 20.4052 29.0707C20.5685 28.9658 20.79 28.8803 20.8483 28.6821C20.9338 28.3284 20.5102 28.1419 20.2498 28.3712Z" fill="black"/>
<path d="M26.3163 29.1523C26.1181 29.2184 26.0754 29.3272 25.7645 29.4943C25.1388 29.8325 24.8745 29.8985 24.0389 30.0579C23.2461 30.26 23.316 30.2172 22.4416 30.2755C22.1695 30.2872 21.8936 30.2716 21.6215 30.2405C21.4428 30.2095 21.264 30.1395 21.0852 30.1784C20.3662 30.2483 20.3002 31.3093 20.9958 31.492C22.7642 32.005 24.2216 31.492 25.4769 30.7302C25.8539 30.5048 26.2308 30.2639 26.5534 29.9607C26.7283 29.7625 26.7749 29.7975 26.8138 29.5293C26.8177 29.2767 26.5573 29.0824 26.3163 29.1523Z" fill="black"/>
<path d="M33.7433 32.7942C33.3741 32.8447 33.4634 32.8913 33.2691 32.9535C33.1137 32.9962 33.0942 33.0662 32.5346 33.1983C32.1537 33.2644 32.1654 33.2644 32.0643 33.2722C32.1382 33.1789 32.1693 33.0468 32.1459 32.9341C32.1304 32.6931 31.8972 32.5104 31.664 32.5065C31.3725 32.526 31.151 32.7631 30.8867 32.868C30.3349 33.1128 30.467 33.0701 29.7014 33.3305C29.0057 33.5248 28.6482 33.5054 28.38 33.5248C28.1274 33.517 27.8786 33.3538 27.6455 33.3227C28.1118 33.1439 28.5549 32.8952 28.9785 32.6309C29.4643 32.3355 29.8918 31.9702 30.2921 31.5699C30.3815 31.4922 30.4359 31.3795 30.432 31.2629C30.4359 31.1191 30.3504 30.9908 30.2338 30.9131C30.0823 30.8198 29.8685 30.8509 29.7441 30.9753C29.7713 30.9559 29.8374 30.9015 29.7985 30.9287C29.6003 31.053 29.4021 31.1735 29.2 31.2901C28.0458 32.0324 26.5223 32.4677 25.5274 32.6193C25.2942 32.6465 25.0571 32.6737 24.82 32.6504C24.8006 32.6504 24.7889 32.6465 24.7812 32.6465C24.7734 32.6465 24.7656 32.6426 24.754 32.6426C24.5752 32.627 24.4003 32.5376 24.2215 32.561C23.794 32.5998 23.7551 33.2411 24.1671 33.346C24.5402 33.4782 24.9211 33.6025 25.3175 33.6414C25.7333 33.688 26.157 33.6258 26.5689 33.5792C26.7943 33.5598 27.012 33.517 27.2257 33.4587C27.0236 33.6764 27.0314 34.0883 27.3307 34.2477C28.4072 34.7918 29.5692 34.6791 30.6419 34.1933C30.8362 34.1155 31.0267 34.0223 31.2093 33.9134C31.2171 34.2399 31.4697 34.5625 31.835 34.5508C32.5074 34.4653 33.2303 34.4265 33.7977 34.0223C33.9648 33.894 34.1863 33.7813 34.2602 33.5714C34.4351 33.2255 34.1319 32.7864 33.7433 32.7942Z" fill="black"/>
<path d="M39.1728 30.2952C38.7609 30.5051 38.858 30.544 38.5937 30.7111C38.1973 30.987 38.2479 30.9559 37.6727 31.1036C37.2024 31.1852 37.4861 31.1658 37.078 31.1736C37.0314 31.1736 36.9848 31.1697 36.9342 31.1658C36.8837 31.158 36.8177 31.1425 36.7671 31.1308C36.4251 31.0764 36.0598 30.8199 35.7256 31.022C35.2825 31.2629 35.3758 31.9819 35.8655 32.0985C36.3163 32.2307 36.7788 32.3628 37.2529 32.3317C37.8204 32.2929 38.3722 32.083 38.8425 31.7721C39.0718 31.6127 39.2855 31.4339 39.4954 31.2474C39.647 31.123 39.7985 30.9715 39.7869 30.7655C39.8063 30.4507 39.476 30.2058 39.1728 30.2952Z" fill="black"/>
<path d="M43.8401 28.6588C43.844 28.41 43.6769 28.1691 43.4282 28.1069C43.4126 28.103 43.401 28.103 43.3893 28.103C43.3854 27.6366 43.401 27.1664 43.2844 26.7117C43.1134 26.0043 42.7247 25.3786 42.406 24.7335C42.1107 24.0495 41.7298 23.3927 41.2401 22.833C41.0302 22.6504 40.6766 22.8291 40.6843 23.1051C40.7038 23.3421 40.9175 23.5054 41.0263 23.7075C41.6326 24.5897 41.8347 25.2504 42.1262 26.3075C42.4799 27.419 42.5421 27.9553 42.4371 29.1018C42.4371 29.1135 42.4332 29.1251 42.4332 29.1368C42.4255 29.1873 42.4138 29.2417 42.4021 29.2923C42.3983 29.3195 42.3866 29.3583 42.3711 29.405C42.3128 29.4982 42.2506 29.5915 42.1884 29.6848C42.1068 29.782 41.9435 29.9763 41.8503 30.0618C41.8308 30.0734 41.8075 30.0851 41.7881 30.0968C41.6054 30.1123 41.4694 30.1084 40.9836 29.9491C40.8437 29.8985 40.8165 29.883 40.9719 29.9491C40.7271 29.8636 40.5017 29.6926 40.2491 29.6498C39.6739 29.5449 39.3902 30.3766 39.8993 30.6603C40.0781 30.7536 40.2763 30.8429 40.4512 30.9168C40.4861 31.1033 40.5911 31.2782 40.7737 31.3793C40.8165 31.4026 40.8592 31.422 40.9059 31.4415C40.9214 31.6708 41.0574 31.8923 41.3528 31.9778C41.5977 32.0439 41.8542 32.1099 42.1107 32.0555C42.2 32.04 42.3749 31.9661 42.3983 31.9506C42.6548 31.8418 42.919 31.6902 43.0279 31.4298C43.09 31.2977 43.0939 31.1655 43.0551 31.0489C43.1522 30.9518 43.2066 30.8196 43.2183 30.6836C43.4709 30.3494 43.6536 29.9607 43.7468 29.5604C43.8013 29.2806 43.8362 28.9969 43.8401 28.7093C43.8401 28.6976 43.8401 28.6899 43.8401 28.6782C43.8401 28.6704 43.8401 28.6665 43.8401 28.6588Z" fill="black"/>
<path d="M10.4636 28.9386C10.4441 28.9386 10.4286 28.9386 10.4092 28.9347C8.58255 28.6044 6.69374 28.2585 4.83214 27.7494C4.10927 27.5084 3.4136 27.3491 2.67906 27.1819C1.87846 26.9993 1.04676 26.8088 0.199519 26.5135C0.0440622 26.4591 -0.0375518 26.2919 0.0168582 26.1365C0.0712682 25.981 0.238384 25.9033 0.393841 25.9538C1.20999 26.2414 2.02225 26.4241 2.80731 26.6029C3.5263 26.7661 4.26861 26.9371 5.00315 27.1819C6.73261 27.6522 8.51259 27.9864 10.2421 28.3012C10.9882 25.2815 12.0026 22.3317 12.9859 19.479C13.5688 17.7807 14.1751 16.0279 14.7231 14.2518C14.727 14.244 14.727 14.2362 14.7309 14.2285C14.9135 13.7699 15.1118 13.3152 15.3061 12.8799C15.8269 11.6984 16.3165 10.5791 16.5575 9.28492C16.5497 9.27326 16.5264 9.25383 16.5148 9.24995C16.4798 9.24995 16.4487 9.24218 16.4137 9.23052C14.7969 8.61646 13.1064 8.16563 11.4702 7.73424C9.53861 7.22123 7.5371 6.69267 5.59388 5.87264C5.44231 5.81045 5.37236 5.63557 5.43454 5.484C5.49672 5.33243 5.67161 5.26247 5.82318 5.32466C7.72753 6.12526 9.70573 6.64993 11.6217 7.15906C13.2579 7.59434 14.9485 8.04127 16.5808 8.65921C16.884 8.69419 17.1482 8.9779 17.1482 9.28881C17.1482 9.30825 17.1482 9.3238 17.1444 9.34323C16.8917 10.7268 16.3593 11.9432 15.8424 13.1169C15.6559 13.5445 15.4615 13.9875 15.2789 14.4344C14.727 16.2144 14.1207 17.9672 13.5377 19.6656C12.4845 22.7281 11.4896 25.6196 10.7434 28.7054C10.7162 28.8492 10.5957 28.9386 10.4636 28.9386Z" fill="black"/>
<path d="M6.71309 27.9984C6.68978 27.9984 6.66646 27.9945 6.63925 27.9906C6.47991 27.9517 6.38275 27.7885 6.4255 27.6331C8.12776 20.8474 10.5218 13.638 12.9975 7.84724C13.0635 7.69567 13.2345 7.62571 13.3861 7.69178C13.5377 7.75785 13.6076 7.92885 13.5416 8.08042C11.0776 13.8401 8.69517 21.0222 7.00069 27.7769C6.96571 27.909 6.84523 27.9984 6.71309 27.9984Z" fill="black"/>
<path d="M55.2471 29.8015C55.2004 29.8015 55.1538 29.7899 55.111 29.7704C55.0372 29.7316 54.9828 29.6694 54.9633 29.5878C53.7896 25.542 52.546 21.5001 51.2285 17.2212C50.5445 15.002 49.841 12.709 49.1376 10.3888C49.0948 10.2528 49.157 10.109 49.2814 10.0429C52.2817 8.4184 55.4336 7.03095 58.6555 5.91554C58.8109 5.86113 58.978 5.94275 59.0324 6.0982C59.0869 6.25366 59.0052 6.42078 58.8498 6.47519C55.7329 7.55173 52.682 8.88866 49.775 10.4471C50.4551 12.6896 51.1352 14.901 51.7959 17.0463C53.0823 21.2203 54.2949 25.1728 55.4453 29.1214C58.1969 28.1381 60.9329 27.0111 63.5796 25.7791C63.7272 25.7091 63.9021 25.7752 63.9721 25.9229C64.042 26.0706 63.976 26.2455 63.8283 26.3154C61.0689 27.6018 58.2163 28.7716 55.3442 29.786C55.3131 29.7976 55.2782 29.8015 55.2471 29.8015Z" fill="black"/>
<path d="M58.807 28.2545C58.6748 28.2545 58.5543 28.1651 58.5194 28.033C56.7899 21.5349 54.8234 15.0057 52.6625 8.6358C52.612 8.48035 52.6936 8.31323 52.8491 8.25882C53.0045 8.2083 53.1716 8.28992 53.226 8.44537C55.3869 14.8308 57.3612 21.3677 59.0907 27.8814C59.1334 28.0407 59.0401 28.2001 58.8808 28.2428C58.8575 28.2506 58.8342 28.2545 58.807 28.2545Z" fill="black"/>
<path d="M26.0406 19.4405C25.3604 19.4405 24.5637 19.1451 24.2062 18.4533C23.5688 17.2174 24.7658 15.83 25.1583 15.3714C26.7829 13.4865 28.4618 11.5394 30.5527 10.0703C32.9079 8.41467 35.4846 7.66459 37.8048 7.95996C38.9901 8.11153 40.1211 8.52738 41.2093 8.93157C41.563 9.06371 41.9244 9.19585 42.2858 9.32021C44.5633 10.1014 46.9379 10.5133 49.3436 10.5483C49.5068 10.5522 49.639 10.6843 49.6351 10.8476C49.6312 11.0108 49.499 11.1391 49.3397 11.1391H49.3358C46.8679 11.1041 44.4311 10.6805 42.0954 9.87986C41.7301 9.75549 41.3609 9.61946 41.0072 9.48732C39.9462 9.0948 38.8502 8.6906 37.7309 8.5468C35.5584 8.27087 33.1294 8.98598 30.8947 10.5561C28.8621 11.9824 27.2104 13.9023 25.6092 15.7561C24.7153 16.7938 24.4277 17.5866 24.7347 18.1774C24.9951 18.6787 25.6325 18.8731 26.1455 18.842C26.7362 18.807 27.2881 18.5466 27.9022 18.2396C28.3102 18.0336 28.7183 17.8315 29.1225 17.6294C31.6137 16.3896 33.965 15.2198 36.1958 13.6458C36.3279 13.5525 36.5145 13.5836 36.6078 13.7158C36.701 13.8479 36.6699 14.0345 36.5378 14.1277C34.2681 15.725 31.8974 16.9065 29.3868 18.1541C28.9826 18.3562 28.5745 18.5583 28.1664 18.7642C27.5213 19.0907 26.88 19.3861 26.1805 19.4288C26.1338 19.4405 26.0872 19.4405 26.0406 19.4405Z" fill="black"/>
<path d="M47.9325 30.2292C47.8159 30.2292 47.7071 30.1592 47.6605 30.0465C47.5983 29.895 47.6682 29.724 47.8198 29.6618C49.9496 28.7834 52.0988 27.8701 54.2091 26.949C54.3607 26.883 54.5317 26.9529 54.5977 27.1006C54.6638 27.2522 54.5939 27.4232 54.4462 27.4893C52.332 28.4142 50.1789 29.3275 48.0491 30.2059C48.0102 30.2214 47.9714 30.2292 47.9325 30.2292Z" fill="black"/>
<path d="M47.1086 31.4185C47.0464 31.4185 46.9881 31.4146 46.9376 31.4068C45.9543 31.3019 44.9866 30.649 44.2831 29.6191C43.8323 28.9584 43.5214 28.2199 43.2182 27.5087C43.125 27.2833 43.0278 27.0579 42.9268 26.8364C42.1223 25.037 41.0379 23.393 39.6971 21.9472C39.5844 21.8268 39.5922 21.6402 39.7127 21.5275C39.8332 21.4148 40.0197 21.4226 40.1324 21.5431C41.516 23.0354 42.6392 24.7338 43.467 26.5915C43.568 26.8169 43.6652 27.0462 43.7623 27.2755C44.0655 27.9945 44.3531 28.6708 44.7689 29.2848C45.3752 30.1748 46.1875 30.7306 46.9958 30.82C47.0425 30.8238 47.1824 30.8394 47.2485 30.8005C47.3223 30.7539 47.3573 30.5984 47.3495 30.338C47.2407 26.9063 46.1136 23.4552 44.1704 20.6259C42.2272 17.7965 39.4134 15.5035 36.2499 14.1705C36.0983 14.1083 36.0283 13.9334 36.0905 13.7819C36.1527 13.6303 36.3276 13.5603 36.4792 13.6225C39.7477 14.9983 42.6508 17.3651 44.6601 20.2877C46.6655 23.2103 47.8353 26.7742 47.9441 30.3147C47.9519 30.5129 47.9675 31.0454 47.5672 31.2941C47.4195 31.3952 47.2524 31.4185 47.1086 31.4185Z" fill="black"/>
<path d="M32.3246 34.6636C31.9126 34.6636 31.3802 34.5975 30.805 34.1739C30.6729 34.0768 30.6457 33.8902 30.7428 33.762C30.84 33.6298 31.0265 33.6026 31.1548 33.6998C31.7067 34.104 32.1692 34.0845 32.5772 34.069L32.62 34.0651C33.234 34.0418 33.8947 33.727 34.2639 33.2839C34.4233 33.0935 34.6059 32.7904 34.5554 32.4212C34.5554 32.4095 34.5515 32.3939 34.5515 32.3823C34.5515 31.7488 34.466 31.1075 34.3883 30.6178C34.3689 30.4896 34.4349 30.3613 34.5515 30.303C34.6681 30.2447 34.8119 30.2758 34.8974 30.373C35.3444 30.8666 35.8107 31.3796 36.3743 31.7177C36.965 32.0714 37.6179 32.1685 38.1232 31.9859C38.8188 31.7294 39.5339 30.5207 39.3785 29.86C39.3396 29.7006 39.4368 29.5413 39.5961 29.5024C39.7555 29.4675 39.9148 29.5607 39.9537 29.7201C40.2024 30.7539 39.2308 32.2074 38.3291 32.5377C37.6451 32.7865 36.8251 32.6738 36.0711 32.2229C35.7058 32.0053 35.3871 31.7332 35.0918 31.4418C35.1228 31.7371 35.1423 32.0481 35.1423 32.359C35.1967 32.8137 35.049 33.2606 34.7148 33.6609C34.2367 34.2322 33.4206 34.6209 32.6394 34.652H32.5967C32.5189 34.6597 32.4257 34.6636 32.3246 34.6636Z" fill="black"/>
<path d="M42.0642 32.2384C41.8194 32.2384 41.5862 32.1724 41.3647 32.0869C40.2454 31.6516 39.6507 30.4351 39.0794 29.2536C38.683 28.4375 38.2711 27.5903 37.7075 27.0928C37.587 26.984 37.5754 26.7974 37.6842 26.6731C37.793 26.5526 37.9796 26.5409 38.1039 26.6497C38.753 27.2288 39.1921 28.1266 39.6119 28.9933C40.1599 30.1203 40.6806 31.1852 41.5823 31.535C41.9709 31.6866 42.4529 31.8731 43.0941 30.7888C43.269 30.4934 43.3156 30.1203 43.3428 29.7589C43.4089 28.8339 43.1602 27.8856 42.9192 26.9645C42.8842 26.8246 42.8454 26.6847 42.8104 26.5448C42.7715 26.3855 42.8648 26.2261 43.0242 26.1873C43.1835 26.1484 43.3428 26.2417 43.3817 26.401C43.4167 26.5409 43.4517 26.677 43.4905 26.8169C43.7432 27.7846 44.0035 28.7834 43.9297 29.8016C43.8986 30.233 43.8403 30.6916 43.6032 31.0919C43.0708 31.978 42.5461 32.2384 42.0642 32.2384Z" fill="black"/>
<path d="M22.8145 32.0596C22.7873 32.0596 22.764 32.0596 22.7368 32.0596C21.6292 32.0324 20.6692 31.3717 20.4011 30.4545C20.3 30.1086 20.3 29.7549 20.3505 29.4168C19.7482 29.7899 18.9942 29.9492 18.2752 29.8171C17.1753 29.6189 16.2504 28.7172 16.0794 27.6718C16.0094 27.2404 16.1454 26.9994 16.2698 26.8751C16.3864 26.7585 16.5729 26.7624 16.6895 26.879C16.8061 26.9956 16.8022 27.1821 16.6856 27.2987C16.6584 27.3259 16.6351 27.4153 16.6623 27.5785C16.7984 28.3869 17.5173 29.0865 18.3801 29.238C19.2196 29.3896 20.1174 29.0515 20.6109 28.3986C20.6926 28.2936 20.8325 28.2548 20.9568 28.3014C21.0657 28.2431 21.1628 28.2042 21.225 28.1809C22.4104 27.7184 23.6501 27.4347 24.9171 27.3376C25.9353 27.2559 26.6155 27.5047 26.9303 28.0682C27.0818 28.3364 27.1363 28.6706 27.0857 29.0515C27.0235 29.5412 26.8137 30.0153 26.4872 30.3884C26.1724 30.7498 25.7721 31.0025 25.3835 31.224C24.7111 31.6165 23.8017 32.0596 22.8145 32.0596ZM21.054 28.9543C20.9219 29.4557 20.8558 29.8871 20.9724 30.2913C21.19 31.0413 22.0334 31.4533 22.7524 31.4688C23.6229 31.4922 24.4624 31.0763 25.0998 30.711C25.4418 30.5167 25.7954 30.2951 26.0481 29.9998C26.2968 29.7161 26.4561 29.3507 26.5028 28.9776C26.5261 28.8027 26.5261 28.554 26.4173 28.3558C26.1763 27.9244 25.4923 27.8856 24.9637 27.9244C23.7551 28.0177 22.5697 28.2897 21.4388 28.7289C21.2561 28.8066 21.1278 28.8805 21.054 28.9543Z" fill="black"/>
<path d="M25.7179 34.061C25.2554 34.061 24.8202 33.9522 24.4548 33.7346C23.7359 33.311 23.3045 32.4676 23.3783 31.6398C23.3938 31.4766 23.5376 31.36 23.7009 31.3716C23.8641 31.3872 23.9846 31.531 23.969 31.6942C23.9146 32.2927 24.2372 32.9223 24.758 33.2294C25.2593 33.5247 25.9395 33.5519 26.6274 33.3071C27.2725 33.0778 27.836 32.658 28.4073 32.215C29.2157 31.5815 29.9775 30.8703 30.0474 29.9764C30.0513 29.922 30.0552 29.8482 30.0358 29.8015C30.0163 29.7588 29.9619 29.7082 29.8725 29.6538C29.445 29.3973 28.8659 29.3352 28.2441 29.4751C27.6961 29.5994 27.2453 29.8326 26.7245 30.1008L26.6351 30.1474C26.4913 30.2213 26.3126 30.1668 26.2348 30.0192C26.161 29.8754 26.2154 29.6966 26.3631 29.6189L26.4525 29.5722C26.9849 29.2963 27.4901 29.0359 28.112 28.896C28.8815 28.7211 29.616 28.8105 30.1757 29.1447C30.3039 29.2224 30.4866 29.3507 30.5799 29.5645C30.6498 29.7277 30.6498 29.8948 30.6381 30.0192C30.5526 31.1423 29.6899 31.9585 28.7727 32.6775C28.1897 33.1361 27.5562 33.6025 26.8294 33.8628C26.4525 33.995 26.0794 34.061 25.7179 34.061Z" fill="black"/>
<path d="M29.1731 34.9043C28.7495 34.9043 28.3298 34.8071 27.9489 34.6205C27.5097 34.4029 27.0511 33.9637 27.0861 33.3924C27.0978 33.2292 27.2377 33.1048 27.4009 33.1165C27.5641 33.1282 27.6885 33.2681 27.6769 33.4313C27.6574 33.715 27.9528 33.9637 28.2093 34.092C28.6135 34.2941 29.0799 34.3602 29.5229 34.2863C30.2302 34.1658 30.8365 33.7034 31.3418 33.2681C31.9092 32.7745 32.154 32.3703 32.1074 31.9855C32.053 31.5386 31.5672 31.2394 31.1474 31.216C30.7277 31.1927 30.2924 31.3676 29.7872 31.764C29.6589 31.8651 29.4724 31.8418 29.3713 31.7135C29.2703 31.5852 29.2936 31.3987 29.4219 31.2977C29.8144 30.9906 30.4284 30.5825 31.1785 30.6253C31.8509 30.6642 32.601 31.1539 32.6942 31.9156C32.7875 32.6968 32.189 33.3186 31.7304 33.715C31.198 34.1775 30.479 34.7216 29.624 34.8693C29.4763 34.8887 29.3247 34.9043 29.1731 34.9043Z" fill="black"/>
<path d="M20.883 28.6822C20.7431 28.6822 20.6148 28.5812 20.5915 28.4374C20.4866 27.8311 19.822 27.4697 19.4334 27.3064C18.3024 26.8284 17.3192 26.844 16.5108 27.3531C16.3786 27.4347 16.2037 27.4036 16.1144 27.2753C14.9834 25.7052 13.5726 24.5432 11.9209 23.8242C11.7693 23.7581 11.7033 23.5832 11.7693 23.4355C11.8354 23.284 12.0103 23.2179 12.158 23.284C13.833 24.0146 15.271 25.1689 16.4369 26.7157C17.3658 26.2338 18.4501 26.2493 19.6627 26.7623C20.5216 27.1238 21.0618 27.6834 21.1745 28.3402C21.2017 28.4996 21.0929 28.655 20.9335 28.6822C20.918 28.6783 20.8986 28.6822 20.883 28.6822Z" fill="black"/>
<path d="M16.604 10.6531C16.468 10.6531 16.3475 10.5599 16.3164 10.4238C16.2815 10.2645 16.3786 10.1051 16.538 10.0702C19.8103 9.31231 22.8223 8.27463 25.3368 7.35743L25.5623 7.27582C26.5183 6.92604 27.5055 6.5646 28.547 6.44801C30.9488 6.18373 33.1602 7.21363 35.1112 8.12306C35.2589 8.19301 35.325 8.36791 35.255 8.51559C35.1851 8.66328 35.0102 8.72934 34.8625 8.65939C32.9814 7.78105 30.8478 6.78613 28.6131 7.03486C27.6454 7.1398 26.6893 7.48957 25.7682 7.82768L25.5428 7.90931C23.0128 8.83428 19.9813 9.87972 16.674 10.6453C16.6507 10.6531 16.6274 10.6531 16.604 10.6531Z" fill="black"/>
<path d="M22.4728 5.52311C22.3756 5.52311 22.2784 5.47259 22.224 5.38708C22.1385 5.24717 22.1774 5.06451 22.3173 4.97901C25.0067 3.27675 28.2363 2.44117 31.4116 2.61606C31.5748 2.62383 31.6992 2.76374 31.6914 2.92697C31.6836 3.0902 31.5437 3.21457 31.3805 3.2068C28.3257 3.03579 25.2205 3.84028 22.636 5.47647C22.5816 5.50756 22.5272 5.52311 22.4728 5.52311Z" fill="black"/>
<path d="M20.6186 2.62763C20.5215 2.62763 20.4282 2.58099 20.3699 2.4916C20.2805 2.35558 20.3194 2.17292 20.4554 2.08353C22.045 1.04974 23.8716 0.330745 25.7371 0.00428489C25.8964 -0.0229201 26.0519 0.0820175 26.0791 0.245248C26.1063 0.404591 26.0013 0.560044 25.8381 0.587249C24.0504 0.90205 22.2976 1.58995 20.7741 2.58099C20.7275 2.61208 20.6731 2.62763 20.6186 2.62763Z" fill="black"/>
<path d="M39.5535 35.1105C39.3942 35.1105 39.262 34.9822 39.2581 34.8229C39.2543 34.6596 39.3825 34.5236 39.5457 34.5197C41.2674 34.4653 42.9502 33.8357 44.2833 32.7397C44.4115 32.6348 44.5942 32.6542 44.6991 32.7825C44.8041 32.9069 44.7846 33.0934 44.6564 33.1983C43.2223 34.3759 41.4151 35.0561 39.5613 35.1144C39.5613 35.1105 39.5574 35.1105 39.5535 35.1105Z" fill="black"/>
</svg>
