<svg width="56" height="38" viewBox="0 0 56 38" fill="none" xmlns="http://www.w3.org/2000/svg">
<path d="M44.1115 12.9912H8.31104V37.5858H44.1115V12.9912Z" fill="white"/>
<path d="M44.1115 37.9342H8.31105C8.11907 37.9342 7.96973 37.7778 7.96973 37.5929V12.9912C7.96973 12.7992 8.12618 12.6499 8.31105 12.6499H44.1115C44.3035 12.6499 44.4528 12.8063 44.4528 12.9912V37.5858C44.4599 37.7778 44.3035 37.9342 44.1115 37.9342ZM8.65945 37.2445H43.7703V13.3396H8.65945V37.2445Z" fill="black"/>
<path d="M55.6587 19.1985H29.2225V37.5858H55.6587V19.1985Z" fill="white"/>
<path d="M55.6587 37.9342H29.2225C29.0305 37.9342 28.8812 37.7778 28.8812 37.5929V19.1985C28.8812 19.0065 29.0376 18.8572 29.2225 18.8572H55.6587C55.8507 18.8572 56 19.0136 56 19.1985V37.5858C56 37.7778 55.8507 37.9342 55.6587 37.9342ZM29.5709 37.2445H55.3174V19.5398H29.5709V37.2445Z" fill="black"/>
<path d="M51.7338 24.0265H34.0361V37.5859H51.7338V24.0265Z" fill="white"/>
<path d="M51.7409 37.9343H34.0434C33.8514 37.9343 33.702 37.7778 33.702 37.593V24.0336C33.702 23.8416 33.8585 23.6923 34.0434 23.6923H51.7409C51.9329 23.6923 52.0823 23.8487 52.0823 24.0336V37.593C52.0823 37.7778 51.9258 37.9343 51.7409 37.9343ZM34.3846 37.2446H51.3925V24.3749H34.3846V37.2446Z" fill="black"/>
<path d="M20 20H18C16.3431 20 15 21.3431 15 23V25C15 26.6569 16.3431 28 18 28H20C21.6569 28 23 26.6569 23 25V23C23 21.3431 21.6569 20 20 20Z" fill="#1DA1F3"/>
<path d="M22.5371 28H15.4627C15.2024 28 15 27.7885 15 27.5385V20.4615C15 20.2019 15.2121 20 15.4627 20H22.5371C22.7973 20 22.9997 20.2115 22.9997 20.4615V27.5385C23.0093 27.7885 22.7973 28 22.5371 28ZM15.9349 27.0673H22.0745V20.9231H15.9349V27.0673Z" fill="black"/>
<path d="M10.4441 0.540976L0.340332 13.7804L50.5819 13.8586L40.2862 0.348999L10.4441 0.540976Z" fill="white"/>
<path d="M50.5819 14.207L0.340341 14.1288C0.212355 14.1288 0.0914846 14.0506 0.034602 13.9368C-0.0222806 13.816 -0.00806863 13.6809 0.070145 13.5742L10.1739 0.334785C10.2379 0.249461 10.3375 0.199693 10.4441 0.199693L40.279 0.000598753C40.3857 -0.00651158 40.4924 0.0503728 40.5564 0.135697L50.8592 13.6453C50.9374 13.752 50.9516 13.8871 50.8948 14.0079C50.8308 14.1288 50.717 14.207 50.5819 14.207ZM1.03714 13.4391L49.8851 13.5173L40.1155 0.690301L10.6219 0.882283L1.03714 13.4391Z" fill="black"/>
<path d="M34.2281 35.3176C34.1641 35.3176 34.1144 35.2678 34.1144 35.2038C34.1144 35.1398 34.1641 35.0901 34.2281 35.0901C35.8706 35.0901 38.4446 35.0829 41.2816 35.0687C44.7514 35.0545 48.6764 35.0403 51.7338 35.0403C51.7978 35.0403 51.8475 35.0901 51.8475 35.154C51.8475 35.218 51.7978 35.2678 51.7338 35.2678C48.6764 35.2678 44.7514 35.282 41.2816 35.2963C38.4446 35.3034 35.8706 35.3176 34.2281 35.3176Z" fill="black"/>
<path d="M34.2281 33.0352C34.1641 33.0352 34.1144 32.9855 34.1144 32.9215C34.1144 32.8575 34.1641 32.8077 34.2281 32.8077C35.8706 32.8077 38.4446 32.8006 41.2816 32.7864C44.7514 32.7722 48.6764 32.7579 51.7338 32.7579C51.7978 32.7579 51.8475 32.8077 51.8475 32.8717C51.8475 32.9357 51.7978 32.9855 51.7338 32.9855C48.6764 32.9855 44.7514 32.9997 41.2816 33.0139C38.4446 33.0281 35.8706 33.0352 34.2281 33.0352Z" fill="black"/>
<path d="M34.2281 30.7528C34.1641 30.7528 34.1144 30.703 34.1144 30.639C34.1144 30.575 34.1641 30.5252 34.2281 30.5252C35.8706 30.5252 38.4446 30.5181 41.2816 30.5039C44.7514 30.4897 48.6764 30.4755 51.7338 30.4755C51.7978 30.4755 51.8475 30.5252 51.8475 30.5892C51.8475 30.6532 51.7978 30.703 51.7338 30.703C48.6764 30.703 44.7514 30.7172 41.2816 30.7314C38.4446 30.7457 35.8706 30.7528 34.2281 30.7528Z" fill="black"/>
<path d="M34.1358 28.4703C34.0718 28.4703 34.022 28.4205 34.022 28.3565C34.022 28.2925 34.0718 28.2428 34.1358 28.2428C35.7782 28.2428 38.3522 28.2357 41.1892 28.2214C44.659 28.2072 48.5839 28.193 51.6414 28.193C51.7054 28.193 51.7551 28.2428 51.7551 28.3068C51.7551 28.3708 51.7054 28.4205 51.6414 28.4205C48.5839 28.4205 44.659 28.4347 41.1892 28.449C38.3522 28.4632 35.7711 28.4703 34.1358 28.4703Z" fill="black"/>
<path d="M34.1358 26.1879C34.0718 26.1879 34.022 26.1382 34.022 26.0742C34.022 26.0102 34.0718 25.9604 34.1358 25.9604C35.7782 25.9604 38.3522 25.9533 41.1892 25.9391C44.659 25.9249 48.5839 25.9106 51.6414 25.9106C51.7054 25.9106 51.7551 25.9604 51.7551 26.0244C51.7551 26.0884 51.7054 26.1382 51.6414 26.1382C48.5839 26.1382 44.659 26.1524 41.1892 26.1666C38.3522 26.1808 35.7711 26.1879 34.1358 26.1879Z" fill="black"/>
<g opacity="0.1294">
<path d="M44.2609 14.1502C44.1115 14.0578 43.9409 14.0578 43.7774 14.072C43.3294 14.0933 42.8743 14.1146 42.4264 14.136C40.4142 14.1786 38.4019 14.1715 36.3897 14.1857C34.5695 14.1431 32.7564 14.0578 30.9361 14.072C27.3738 14.0435 23.8115 14.2924 20.2493 14.1715C17.071 14.0506 13.8926 14.072 10.7214 13.9227C10.2664 13.9084 9.80419 13.8942 9.34912 13.88C9.10026 13.8516 8.8372 13.9013 8.65944 14.0862C8.20438 14.5128 8.54566 15.3518 9.17137 15.3305C12.9327 15.4869 16.687 15.6718 20.4555 15.7074C23.8186 15.6718 27.1748 15.5225 30.5379 15.494C33.8371 15.5296 37.1292 15.622 40.4284 15.5083C41.4167 15.4798 42.405 15.4656 43.3934 15.3945C43.6778 15.3874 44.2538 15.3092 43.948 15.3447C44.1187 15.3447 44.2822 15.2736 44.4031 15.1599C44.6875 14.8754 44.6164 14.3493 44.2609 14.1502Z" fill="black"/>
</g>
</svg>
