<svg width="58" height="40" viewBox="0 0 58 40" fill="none" xmlns="http://www.w3.org/2000/svg">
<path d="M30.4189 12.2186C30.4189 12.2186 28.6595 17.51 28.5528 19.0971C28.4461 20.6842 28.003 26.0609 28.0522 27.904C28.1015 29.7472 28.5939 30.3446 28.4462 31.2407C28.2984 32.1368 27.7092 38.0847 27.7092 38.0847C27.7092 38.0847 28.3493 38.6099 28.2016 39.9049H30.4206L29.8248 37.8631C29.8248 37.8631 29.2339 35.6228 29.3817 34.0784C29.5294 32.5356 30.3648 30.1952 30.7587 29.1498C31.1526 28.1043 31.1033 26.3613 31.1033 26.3613L33.1188 19.8882L34.2496 15.7063L30.4189 12.2186Z" fill="#FF725E"/>
<path d="M30.2205 39.7549H28.3659C28.4059 39.1658 28.2868 38.7358 28.1459 38.444C28.0693 38.2853 27.987 38.169 27.9223 38.0912C27.9013 38.0659 27.8822 38.0446 27.8657 38.0273L27.8841 37.8423C27.9005 37.6779 27.9241 37.4421 27.9528 37.1564C28.0104 36.5849 28.0886 35.8135 28.1715 35.0142C28.3376 33.412 28.5212 31.7074 28.5942 31.2651C28.672 30.7931 28.5828 30.3977 28.4758 29.9232L28.4694 29.8945C28.3593 29.4058 28.2264 28.8069 28.2022 27.9C28.1628 26.4247 28.4412 22.6647 28.6074 20.4201C28.6478 19.8749 28.6815 19.4191 28.7025 19.1072C28.7282 18.7253 28.8549 18.1088 29.0349 17.3892C29.2141 16.673 29.4434 15.8651 29.6696 15.1055C29.8959 14.3462 30.1188 13.6361 30.2852 13.1159C30.3684 12.8558 30.4375 12.6432 30.4857 12.4957L30.4891 12.4854L34.0809 15.7555L32.9747 19.8463L30.9601 26.3167L30.9527 26.3405L30.9534 26.3655L30.9534 26.3655L30.9534 26.3655L30.9534 26.3657L30.9534 26.3665L30.9535 26.37L30.9538 26.3841L30.9547 26.4399C30.9553 26.4887 30.9556 26.5599 30.9549 26.6487C30.9534 26.8263 30.9473 27.0739 30.929 27.3537C30.8923 27.9173 30.807 28.5959 30.6183 29.0969C30.2257 30.1388 29.3823 32.498 29.2323 34.0641L29.2323 34.0641C29.1565 34.8569 29.2702 35.8192 29.4 36.5753C29.4652 36.955 29.535 37.286 29.5885 37.5221C29.6153 37.6402 29.638 37.7347 29.6541 37.7998C29.6621 37.8324 29.6685 37.8576 29.6729 37.8748L29.6779 37.8944L29.6793 37.8995L29.6796 37.9009L29.6797 37.9012L29.6797 37.9013L29.8248 37.8631L29.6797 37.9014L29.6808 37.9052L30.2205 39.7549Z" fill="#1DA1F3" stroke="black" stroke-width="0.3"/>
<path d="M9.86399 4.48771L9.86396 4.4876C9.75088 4.51036 8.78679 4.74141 7.77443 5.44731C6.76545 6.15086 5.71123 7.32346 5.39673 9.23611L5.39605 9.24023L5.24871 9.21177L5.39599 9.24024L5.39597 9.24032L5.3959 9.24069L5.3956 9.24226L5.39438 9.24863L5.38959 9.27392C5.38539 9.29622 5.37924 9.32919 5.37146 9.37169C5.35592 9.4567 5.33389 9.57977 5.30804 9.73169C5.25632 10.0356 5.18939 10.4545 5.12846 10.9148C5.00567 11.8422 4.91065 12.9141 5.00328 13.5578L5.00329 13.5578C5.01978 13.6727 5.03998 13.8024 5.06205 13.9441C5.14181 14.456 5.24611 15.1256 5.28909 15.8285C5.34388 16.725 5.3012 17.6995 4.97046 18.4995C4.87497 18.7304 4.7617 19.0358 4.62927 19.3928C4.33185 20.1947 3.93784 21.257 3.43191 22.3208C2.71102 23.8367 1.7436 25.4026 0.451628 26.3037M9.86399 4.48771L4.85481 13.5791C4.87166 13.6965 4.89214 13.828 4.91441 13.971C5.09608 15.1375 5.39763 17.0737 4.83184 18.4422C4.73308 18.681 4.6179 18.9916 4.4841 19.3525C3.75733 21.3124 2.48115 24.7541 0.303631 26.2233M9.86399 4.48771L9.86984 4.48629L11.8027 4.01579M9.86399 4.48771L11.8027 4.01579M0.451628 26.3037L0.453582 26.2271L0.303631 26.2233M0.451628 26.3037L0.151425 38.0635L0.979777 39.0277H2.12545C2.04013 38.9107 1.96213 38.7496 1.89403 38.5162C1.73541 37.9726 1.62091 37.0015 1.62091 35.1845C1.62091 33.412 1.74771 31.6887 1.9831 30.2394C2.21751 28.7961 2.56255 27.6049 3.01044 26.9117C3.2363 26.5621 3.81562 25.9514 4.56008 25.2184C5.30979 24.4801 6.2418 23.6038 7.18637 22.7178C7.25245 22.6558 7.31859 22.5937 7.38473 22.5317C8.2648 21.7063 9.14575 20.8801 9.89342 20.1544C10.6997 19.3717 11.343 18.7134 11.6642 18.3008C11.7025 18.2516 11.7415 18.2015 11.7813 18.1505C13.1086 16.4498 15.2026 13.7665 14.7682 9.70709C14.5425 7.61256 13.7825 6.17916 13.0832 5.27095C12.7331 4.8164 12.3977 4.49275 12.1511 4.2835C12.0277 4.17888 11.9267 4.10291 11.8571 4.05353C11.836 4.0385 11.8178 4.02594 11.8027 4.01579M0.451628 26.3037C0.43035 26.3185 0.408984 26.3332 0.387529 26.3477L0.303631 26.2233M0.303631 26.2233L0 38.1174L0.910893 39.1777H2.2635L11.8027 4.01579M2.32193 39.0277C2.05521 38.7613 1.77091 38.04 1.77091 35.1845C1.77091 31.6526 2.27641 28.3241 3.13643 26.9931C3.58149 26.3042 5.52939 24.4774 7.48766 22.6408C9.31343 20.9285 11.1482 19.2078 11.7825 18.3929C11.8218 18.3424 11.862 18.291 11.9029 18.2386C13.2307 16.5374 15.3583 13.8116 14.9173 9.69102L2.32193 39.0277Z" fill="white" stroke="black" stroke-width="0.3"/>
<path d="M33.3715 33.6679C33.43 33.7312 33.5034 33.8235 33.5702 33.945C33.7086 34.197 33.8155 34.5699 33.7083 35.0576C33.6036 35.5342 33.3932 35.8563 33.2052 36.0604C33.1205 36.1524 33.0407 36.2201 32.9778 36.2671L34.3141 38.522C34.3317 38.5131 34.3511 38.5026 34.372 38.4904C34.4749 38.4301 34.6136 38.3268 34.7481 38.1566C35.0147 37.8192 35.2792 37.1996 35.1833 36.0837C34.996 33.9055 35.8965 32.5149 36.3015 31.8895C36.3328 31.8412 36.3612 31.7974 36.3858 31.7582C36.4691 31.6257 36.65 31.3305 36.8787 30.9571C37.1225 30.5592 37.4205 30.0726 37.713 29.5995C37.9958 29.142 38.2729 28.6977 38.4887 28.3613C38.5965 28.1932 38.6897 28.0511 38.7609 27.9473C38.7964 27.8955 38.8275 27.8519 38.8527 27.8189C38.8652 27.8025 38.8774 27.7872 38.8888 27.7743C38.8975 27.7645 38.9147 27.7453 38.9365 27.7306C38.9537 27.7189 38.9818 27.7026 39.0185 27.6813C39.1834 27.5855 39.5211 27.3895 39.82 27.0626C40.1774 26.6717 40.4573 26.113 40.2528 25.3548C40.0377 24.5575 39.7048 24.0321 39.3555 23.4935C39.3464 23.4794 39.3373 23.4653 39.3281 23.4512C38.9863 22.9243 38.6311 22.3769 38.3847 21.5613C38.142 20.7581 37.9512 20.4019 37.7334 20.0756C37.6804 19.9961 37.6247 19.9171 37.5655 19.8331C37.3779 19.5668 37.1553 19.2507 36.871 18.7143L36.8709 18.7142C36.4821 17.979 36.4358 16.9726 36.4851 16.1523C36.5241 15.5039 36.6247 14.9483 36.6803 14.6971C36.6629 14.6926 36.6431 14.6878 36.6209 14.6828C36.4918 14.6532 36.3017 14.6182 36.0683 14.5798C35.6026 14.5032 34.9757 14.4148 34.3458 14.3308C33.7162 14.2469 33.085 14.1676 32.6111 14.1093C32.3741 14.0802 32.1766 14.0563 32.0382 14.0396L31.9792 14.0326L31.7423 18.1952C31.7694 18.2159 31.8016 18.2421 31.8376 18.2724C31.9265 18.3476 32.047 18.4555 32.1893 18.5867C32.4742 18.8494 32.8509 19.2095 33.2454 19.5961C34.0321 20.367 34.8996 21.253 35.2505 21.6842L35.2506 21.6843C35.5735 22.0819 35.6742 22.4135 35.7601 22.6962C35.7712 22.7331 35.7822 22.7691 35.7933 22.8043C35.8411 22.9554 35.8917 23.0897 35.979 23.2237C36.0659 23.3572 36.1938 23.4971 36.4027 23.6502C36.4028 23.6503 36.4028 23.6503 36.4029 23.6503L33.3715 33.6679ZM33.3715 33.6679C33.3991 33.6339 33.4329 33.5924 33.4724 33.5439C33.5928 33.3963 33.7661 33.1848 33.9778 32.9299C34.4012 32.42 34.9779 31.7364 35.5913 31.0412C36.2188 30.3299 36.8161 29.3201 37.2499 28.3785C37.4672 27.9069 37.6451 27.4491 37.7658 27.0505C37.8852 26.6563 37.9533 26.3056 37.9395 26.0543L33.3715 33.6679Z" fill="white" stroke="black" stroke-width="0.3"/>
<path d="M47.9302 4.09839L52.1553 7.93327C52.0705 7.99026 51.9554 8.06812 51.818 8.16225C51.5153 8.36956 51.1042 8.65604 50.6708 8.97251C50.2376 9.28879 49.7808 9.636 49.3873 9.96465C48.9967 10.2908 48.6582 10.607 48.4702 10.8606C48.1189 11.3345 47.2189 12.5174 46.0985 13.634C45.5383 14.1923 44.9255 14.7313 44.3011 15.1564C43.6754 15.5824 43.0465 15.8881 42.4533 15.9901C41.2435 16.1981 39.8846 15.9143 38.8167 15.5706C38.2849 15.3995 37.83 15.2151 37.5081 15.0735C37.3473 15.0027 37.2199 14.9427 37.1329 14.9006C37.0895 14.8795 37.0561 14.8629 37.0338 14.8516L37.0087 14.8388L37.0026 14.8357L37.0012 14.8349L37.0009 14.8348L37.0008 14.8348L37.0008 14.8348L36.8576 14.7598L36.7937 14.9079L36.7937 14.9079L36.7937 14.908L36.7936 14.9083L36.7932 14.9091L36.7899 14.9162C36.7886 14.9189 36.787 14.9223 36.785 14.9263C36.7822 14.9322 36.7786 14.9394 36.7741 14.948C36.7593 14.9768 36.7355 15.0205 36.7009 15.077C36.6318 15.19 36.5198 15.3544 36.3505 15.5534C36.0123 15.9511 35.4446 16.4885 34.5332 17.0311C32.7105 18.1163 29.5063 19.2262 24.0019 19.2737C18.5253 19.3209 14.6705 17.0216 12.1822 14.7089C10.9376 13.552 10.0353 12.3921 9.44445 11.5217C9.14909 11.0867 8.93176 10.7243 8.78856 10.4712C8.71697 10.3447 8.66392 10.2456 8.62893 10.1784C8.62254 10.1661 8.61676 10.1549 8.61158 10.1448L11.937 3.97244L12.006 3.94349C12.0819 3.91174 12.1923 3.86591 12.3298 3.80971C12.6048 3.69729 12.9881 3.54345 13.4211 3.37777C14.2893 3.04559 15.3497 2.66881 16.1386 2.48091C16.3684 2.42617 16.5743 2.37904 16.7611 2.33629C17.2162 2.23209 17.5579 2.15388 17.8554 2.0549C18.2859 1.91169 18.6294 1.72412 19.1094 1.35975C19.3556 1.17284 19.5217 0.995053 19.6644 0.840914L19.6704 0.834376C19.8117 0.68176 19.9239 0.560492 20.0724 0.460284C20.3668 0.261612 20.8318 0.129066 21.9781 0.152742C22.5247 0.164033 23.1054 0.345281 23.6998 0.624197C24.2935 0.902773 24.8914 1.27416 25.4718 1.65701C25.666 1.78516 25.859 1.91508 26.0491 2.04306C26.4231 2.2948 26.7859 2.53905 27.1254 2.74763C27.6359 3.06119 28.1178 3.30994 28.5354 3.38684C29.0876 3.4885 29.5954 3.54868 30.1006 3.60853C30.3095 3.63328 30.518 3.65798 30.7289 3.68553C31.4526 3.78008 32.2203 3.90964 33.1746 4.19228C34.0953 4.46522 34.9862 5.27993 35.9017 6.20085C36.0329 6.33284 36.1646 6.46694 36.2968 6.60154C37.0729 7.39204 37.8659 8.19979 38.6867 8.6983C39.6263 9.26894 40.3505 9.66223 41.0821 9.82891C41.8214 9.99733 42.555 9.93199 43.512 9.6169C45.3863 9.00031 46.1743 7.51247 46.5231 6.85375C46.536 6.82948 46.5482 6.80634 46.5599 6.78441C46.7258 6.47335 47.0909 5.75699 47.4138 5.1201C47.5754 4.80129 47.7267 4.50183 47.8376 4.28208L47.9302 4.09839Z" fill="white" stroke="black" stroke-width="0.3"/>
<path d="M3.74676 10.2759L3.74675 10.2759C3.71844 10.5232 3.72424 10.7724 3.73029 11.0324C3.73255 11.1291 3.73483 11.2274 3.73541 11.3277C3.73749 11.6881 3.71628 12.0632 3.56888 12.4188L3.5688 12.419C3.39966 12.8252 3.10023 13.1268 2.78513 13.3914C2.66743 13.4902 2.55024 13.5821 2.43528 13.6722C2.23225 13.8313 2.03619 13.9849 1.85663 14.1619C1.08188 14.9257 0.742427 16.1175 0.997782 17.1828M3.74676 10.2759L0.997782 17.1828M3.74676 10.2759C3.80221 9.78933 4.00535 9.235 4.34463 8.80561C4.64583 8.42442 5.04801 8.14826 5.5468 8.09327M3.74676 10.2759L5.5468 8.09327M0.997782 17.1828C1.05764 17.4325 1.14674 17.6747 1.24226 17.9237C1.25383 17.9539 1.26551 17.9842 1.27724 18.0147C1.36131 18.2328 1.44795 18.4576 1.51607 18.6886L1.5162 18.689C1.57787 18.9006 1.60934 19.0922 1.61796 19.2948M0.997782 17.1828L1.61796 19.2948M1.61796 19.2948C1.67643 19.0577 1.68553 18.7853 1.67039 18.4388L1.9616 18.3821C2.12181 18.8331 2.20938 19.3106 2.22102 19.7902C2.96673 18.9623 3.30669 17.7642 3.08791 16.6645C3.04946 16.4718 2.99778 16.2887 2.94442 16.0997C2.90923 15.975 2.8733 15.8477 2.83996 15.7134C2.75921 15.3881 2.70177 15.0461 2.74993 14.693L2.74994 14.6928C2.81135 14.2452 3.03305 13.8604 3.25519 13.5037C3.28241 13.46 3.30961 13.4168 3.33659 13.3738C3.535 13.0583 3.72206 12.7608 3.82554 12.4313L3.82562 12.431C3.94342 12.0584 3.94865 11.6611 3.95416 11.2424C3.95487 11.1887 3.95558 11.1346 3.95653 11.0802L3.95654 11.0796C3.9664 10.6097 4.00173 10.0928 4.24193 9.64621C4.46038 9.24006 4.90057 8.89431 5.38578 8.90777L5.5468 8.09327M1.61796 19.2948L5.5468 8.09327" fill="white" stroke="black" stroke-width="0.3"/>
<path d="M52.2617 7.87424L52.2926 7.85987C52.3575 7.82969 52.4503 7.78642 52.5621 7.73412C52.7859 7.62952 53.0857 7.48881 53.3901 7.34434C53.6947 7.19981 54.0032 7.05178 54.2447 6.93245C54.3656 6.87273 54.4688 6.82061 54.546 6.77991C54.5847 6.75952 54.6159 6.7425 54.6391 6.72913C54.6594 6.7174 54.6689 6.71117 54.6715 6.70943C54.6722 6.70894 54.6724 6.70881 54.6722 6.70903L54.6722 6.70902C54.7488 6.64676 54.8407 6.51087 54.9196 6.37151C54.9572 6.30526 54.9888 6.24366 55.0111 6.19859C55.0222 6.17611 55.0309 6.15788 55.0367 6.1454L55.0433 6.13123L55.0449 6.12776L55.0453 6.12699L55.0453 6.12689L55.0453 6.12686L55.0453 6.12685L55.0453 6.12685L55.0906 6.02669L55.1997 6.03964L55.182 6.1886L55.1997 6.03965L55.1998 6.03965L55.1999 6.03967L55.2002 6.0397L55.2013 6.03983L55.2051 6.0403L55.2188 6.04206C55.2305 6.04362 55.2474 6.04592 55.2682 6.04901C55.3099 6.05518 55.368 6.06451 55.4339 6.07722C55.5629 6.10209 55.7325 6.14187 55.8671 6.20038C56.0862 6.29554 56.4069 6.36815 56.711 6.39021C56.8614 6.40106 56.9716 6.35741 57.0307 6.30264C57.0842 6.25296 57.1038 6.18939 57.0748 6.11087C57.0749 6.11118 57.0749 6.11109 57.0746 6.11062C57.0729 6.10785 57.063 6.09202 57.0305 6.06429C56.9956 6.03452 56.9462 6.00079 56.884 5.96436C56.7598 5.89169 56.5997 5.8171 56.4381 5.74915C56.2774 5.68157 56.1193 5.62223 56.0011 5.57969C55.9421 5.55846 55.8932 5.54149 55.8592 5.52987L55.8199 5.51658L55.8098 5.5132L55.8073 5.51238L55.8067 5.51218L55.8066 5.51214L55.8065 5.51214L55.8065 5.51214L55.8066 5.51205L55.8674 5.22028L55.8533 5.36962L55.8674 5.22028L55.8674 5.22028L55.8675 5.22029L55.8679 5.22033L55.8695 5.22048L55.8757 5.22106L55.8995 5.22331L55.9869 5.2316L56.2741 5.25908C56.4975 5.28062 56.762 5.30653 56.9245 5.32386C56.9496 5.32653 56.9739 5.32926 56.9976 5.33193C57.1384 5.34775 57.2581 5.36122 57.3742 5.34394C57.4969 5.32566 57.6144 5.27194 57.7259 5.12361C57.7613 5.07636 57.7785 5.00314 57.7642 4.89411C57.75 4.78577 57.7069 4.66058 57.6465 4.53226C57.5254 4.27506 57.3508 4.03849 57.2754 3.95584C57.2437 3.92103 57.2124 3.87368 57.1833 3.82583C57.153 3.77604 57.12 3.71684 57.0852 3.65329C57.0686 3.62305 57.0516 3.59169 57.0342 3.55947C56.9771 3.45428 56.9151 3.33989 56.8478 3.22509C56.7599 3.07524 56.6667 2.93116 56.5709 2.81558C56.4728 2.69712 56.3842 2.62364 56.3094 2.59456C56.269 2.57884 56.1886 2.55902 56.0677 2.53768C55.95 2.51692 55.8033 2.49627 55.6363 2.47649C55.3025 2.43697 54.8929 2.40154 54.4831 2.37571C54.0732 2.34988 53.665 2.33378 53.334 2.33264C53.1683 2.33207 53.0236 2.33526 52.9085 2.34261C52.7887 2.35026 52.7145 2.36176 52.6811 2.37259C52.5538 2.41389 52.4399 2.42058 52.3374 2.39922C52.2354 2.37797 52.1551 2.33117 52.0917 2.28176C52.0418 2.2429 51.9976 2.19811 51.9645 2.16469C51.9576 2.15764 51.9511 2.15109 51.9452 2.14522C51.9264 2.12651 51.9127 2.11384 51.9013 2.10493C51.8933 2.09871 51.8891 2.09643 51.888 2.0959L52.2617 7.87424ZM52.2617 7.87424L48.0301 5.41944V3.89551L52.2617 7.87424Z" fill="white" stroke="black" stroke-width="0.3"/>
<path d="M48.7104 2.37526C48.7263 2.39116 48.7398 2.40537 48.7506 2.41728L48.6957 3.88459C48.6413 3.8683 48.5779 3.84742 48.5112 3.82161C48.3091 3.74343 48.1067 3.63135 48.0058 3.48905C47.8917 3.32812 47.8514 3.19745 47.84 3.08498C47.8293 2.97824 47.8432 2.88242 47.8594 2.77087C47.8611 2.75922 47.8628 2.7474 47.8645 2.73537C47.8762 2.65367 47.8693 2.58056 47.839 2.5136C47.8105 2.45064 47.7666 2.40641 47.7357 2.37621C47.7304 2.37108 47.7252 2.36608 47.7201 2.36115C47.6657 2.30861 47.62 2.26444 47.5853 2.16448C47.5679 2.11423 47.571 2.08557 47.5748 2.07133C47.5788 2.05665 47.5869 2.04404 47.6002 2.03196C47.6142 2.01912 47.6317 2.00911 47.6475 2.00215C47.6534 1.99958 47.6584 1.99769 47.6621 1.99642C48.0114 1.95302 48.2897 2.06553 48.4845 2.19255C48.5832 2.25687 48.6593 2.32429 48.7104 2.37526Z" fill="white" stroke="black" stroke-width="0.3"/>
<path d="M52.1129 3.17689C52.1178 3.17853 52.1195 3.20807 52.0965 3.25731C52.0752 3.30655 52.0226 3.37056 51.9389 3.41651C51.8536 3.46575 51.7371 3.48709 51.6156 3.48873C51.4925 3.49201 51.3612 3.47724 51.2332 3.49693C50.9722 3.52648 50.836 3.78579 50.644 3.84816C50.5554 3.88427 50.47 3.88427 50.4191 3.86622C50.3666 3.84816 50.3469 3.82354 50.3502 3.82026C50.3535 3.80877 50.4618 3.87442 50.6194 3.79236C50.6981 3.75625 50.772 3.68404 50.8606 3.60197C50.946 3.51991 51.0723 3.42964 51.2201 3.41323C51.3661 3.39189 51.4991 3.40995 51.6156 3.41159C51.7321 3.41487 51.8355 3.40174 51.911 3.36563C52.0719 3.29178 52.1014 3.17033 52.1129 3.17689Z" fill="#1DA1F3"/>
<path d="M50.5439 3.3641C50.5341 3.36246 50.5456 3.26726 50.6194 3.13596C50.6916 3.00466 50.8361 2.84054 51.0494 2.74535C51.2644 2.65015 51.4844 2.65508 51.6288 2.69119C51.7749 2.72729 51.852 2.7831 51.8471 2.7913C51.8421 2.80443 51.7584 2.76832 51.6173 2.75027C51.4794 2.73058 51.2776 2.73714 51.0839 2.82413C50.8902 2.91111 50.7491 3.0539 50.6703 3.16879C50.5882 3.28368 50.557 3.36902 50.5439 3.3641Z" fill="#1DA1F3"/>
<path d="M52.3443 3.74969C52.3541 3.75461 52.318 3.86293 52.2327 4.0287C52.1473 4.1879 51.998 4.42916 51.714 4.54077C51.5729 4.59329 51.4235 4.59 51.3021 4.56046C51.179 4.53256 51.0772 4.48168 50.9952 4.43901C50.8327 4.3471 50.7441 4.27653 50.749 4.26668C50.7555 4.25519 50.8573 4.30935 51.0214 4.38485C51.1823 4.45378 51.4334 4.55554 51.6845 4.46199C51.934 4.36515 52.085 4.14851 52.1801 3.99916C52.2753 3.84488 52.3311 3.74476 52.3443 3.74969Z" fill="#263238"/>
<path d="M48.1066 2.10854C48.0558 2.06915 47.9983 2.02976 47.9327 2.02812C47.8687 2.02648 47.7981 2.07407 47.7981 2.13972C47.7981 2.18404 47.8293 2.22178 47.8588 2.25461C48.0033 2.41053 48.1904 2.56316 48.1953 2.77653C48.1986 2.86351 48.169 2.94722 48.1674 3.0342C48.1657 3.15401 48.2183 3.26726 48.2921 3.36081C48.366 3.45436 48.4579 3.52822 48.5498 3.60372L48.6204 3.59387C48.75 3.0539 48.5399 2.44828 48.1066 2.10854Z" fill="#1DA1F3"/>
<path d="M21.0358 15.1729C21.0408 15.1745 21.0326 15.2254 21.0112 15.3206C20.9882 15.4142 20.9489 15.5504 20.8832 15.7161C20.7519 16.0444 20.5008 16.4957 20.0708 16.8946L19.969 16.9881L20.0035 16.8535C20.0642 16.6172 20.1003 16.3546 20.102 16.0821C20.102 15.9919 20.0987 15.9016 20.0921 15.813L20.1725 15.8294C19.9313 16.2873 19.6047 16.6418 19.2994 16.8847L19.2469 16.9257L19.242 16.8601C19.219 16.5072 19.283 16.2184 19.347 16.0296C19.3798 15.9344 19.411 15.8622 19.434 15.8146C19.4586 15.767 19.4734 15.744 19.4767 15.744C19.4849 15.7473 19.4373 15.8491 19.3847 16.0395C19.3339 16.2282 19.2797 16.5122 19.3109 16.8535L19.2551 16.8289C19.5489 16.586 19.864 16.2348 20.097 15.7884L20.166 15.6587L20.1775 15.8048C20.184 15.895 20.189 15.987 20.1873 16.0805C20.1857 16.3612 20.1463 16.6303 20.0823 16.8716L20.015 16.8306C20.4368 16.4465 20.6945 16.0116 20.8356 15.6932C20.9768 15.3748 21.0227 15.1696 21.0358 15.1729Z" fill="#263238"/>
<path d="M45.3362 12.1628C45.3412 12.1644 45.3165 12.2153 45.269 12.3056C45.2197 12.3942 45.1442 12.5222 45.0425 12.6765C44.8373 12.985 44.5156 13.4019 44.0741 13.8122L43.9297 13.9468L44.0085 13.7646C44.0955 13.566 44.1874 13.3543 44.2826 13.136C44.3154 13.0605 44.3482 12.985 44.381 12.9112L44.4549 12.9522C44.1742 13.3724 43.7459 13.6169 43.3667 13.7006L43.288 13.717L43.329 13.6481C43.5046 13.3477 43.654 13.0933 43.7688 12.898C43.8772 12.7191 43.9412 12.619 43.9477 12.624C43.9543 12.6272 43.9018 12.7339 43.805 12.9194C43.6966 13.1196 43.5571 13.3773 43.3914 13.6842L43.352 13.6333C43.713 13.5463 44.1184 13.3067 44.3843 12.9062L44.4582 12.9473C44.4254 13.0211 44.3925 13.0966 44.3597 13.1721C44.2645 13.3904 44.171 13.6005 44.084 13.7991L44.0183 13.7515C44.4582 13.3494 44.7848 12.9456 44.9998 12.6469C45.2148 12.3466 45.3264 12.1562 45.3362 12.1628Z" fill="#1DA1F3"/>
<path d="M4.83189 13.2115C4.82533 13.2115 4.81712 13.1344 4.80727 12.9916C4.79907 12.8488 4.7925 12.6436 4.79579 12.3892C4.80235 11.8804 4.85159 11.1763 4.97304 10.4082C5.09613 9.64014 5.2619 8.95574 5.40797 8.46829C5.48183 8.22538 5.54419 8.02843 5.59507 7.89549C5.64267 7.76091 5.67221 7.68869 5.67878 7.69033C5.6837 7.69198 5.66565 7.76911 5.6279 7.90534C5.58851 8.04156 5.53435 8.24015 5.4687 8.4847C5.33904 8.97543 5.18148 9.65819 5.06003 10.423C4.93857 11.1862 4.87949 11.8854 4.85815 12.3925C4.84666 12.6453 4.84502 12.8504 4.84338 12.9932C4.8401 13.1327 4.83682 13.2115 4.83189 13.2115Z" fill="#263238"/>
<path d="M52.2328 3.93518C52.1426 4.19778 51.9226 4.41114 51.66 4.48992C51.3974 4.57034 51.0987 4.51618 50.8804 4.34713L50.8525 4.33565C51.0003 4.55393 51.2185 4.72134 51.4664 4.80504C51.578 4.84279 51.7011 4.86413 51.811 4.82638C51.9128 4.79027 51.9916 4.70985 52.0556 4.62122C52.1967 4.42591 52.2788 4.17316 52.2328 3.93518Z" fill="#1DA1F3"/>
<path d="M49.308 3.14736C49.2834 3.15064 49.2407 2.95205 49.1291 2.73212C49.0192 2.51055 48.8846 2.35792 48.9026 2.33986C48.9158 2.32345 49.0881 2.45639 49.2063 2.69273C49.3244 2.92907 49.3294 3.14571 49.308 3.14736Z" fill="#263238"/>
<path d="M48.4185 3.96315C48.4185 3.973 48.3184 3.97628 48.174 3.91719C48.0312 3.85975 47.8425 3.72845 47.7259 3.51509C47.6094 3.30173 47.5995 3.07359 47.6274 2.92096C47.6554 2.76668 47.7095 2.68462 47.7177 2.68954C47.7308 2.69446 47.698 2.78309 47.6882 2.92916C47.6767 3.07359 47.6964 3.28039 47.8031 3.47406C47.9081 3.66772 48.0739 3.79574 48.2019 3.86303C48.3283 3.93032 48.4202 3.94838 48.4185 3.96315Z" fill="#263238"/>
<path d="M20.0315 16.8797C20.1184 16.5334 20.166 16.1526 20.1381 15.7932C19.974 16.2117 19.6228 16.6007 19.2699 16.8748C19.2519 16.4989 19.3159 16.1165 19.4784 15.7456L19.3897 15.7883C19.0664 16.1428 18.9138 16.6516 18.9909 17.1292C18.9991 17.185 19.0139 17.2424 19.0549 17.2785C19.1337 17.3475 19.2601 17.2966 19.3356 17.2227C19.4111 17.1489 19.4751 17.0537 19.5735 17.0225C19.608 17.0947 19.5785 17.18 19.5637 17.2605C19.5489 17.3392 19.5588 17.441 19.6326 17.4722C19.6868 17.4952 19.7459 17.4689 19.7968 17.4394C20.0987 17.267 20.3417 16.9962 20.5107 16.6893C20.6797 16.3824 20.8012 16.0755 20.8521 15.7275C20.683 16.1608 20.3548 16.5498 20.0315 16.8797Z" fill="#1DA1F3"/>
<g opacity="0.3">
<path d="M19.8689 0.7052C19.4947 1.05314 19.1221 1.40273 18.7479 1.75068C18.4755 2.00507 18.3146 2.36286 18.3097 2.73871C18.2966 3.65452 18.6084 4.60809 19.1812 5.29249C19.027 4.7755 18.871 4.25194 18.8267 3.71361C18.7332 2.62218 19.1238 1.49792 19.8689 0.7052Z" fill="black"/>
</g>
<path d="M27.7092 38.0831C27.7092 38.0831 28.2656 38.5837 28.2016 39.9033H30.4206L29.7936 37.7368L28.9763 37.9666L29.2044 38.4442L28.7629 38.0815L28.9451 38.5509L28.5495 38.0815H27.788" fill="#263238"/>
<path d="M32.774 36.2186C32.774 36.2186 33.726 35.462 33.5815 34.7333L35.318 35.8854C35.318 35.8854 35.707 38.065 34.2495 38.7067L32.774 36.2186Z" fill="#263238"/>
<path d="M15.0421 21.0764L14.9964 21.1161L14.9911 21.1764L15.1405 21.1896L14.9911 21.1765L14.991 21.1767L14.991 21.1776L14.9907 21.181L14.9895 21.1947L14.9849 21.2479C14.9809 21.2945 14.975 21.3631 14.9678 21.4511C14.9533 21.627 14.933 21.8804 14.9098 22.1903C14.8636 22.8101 14.806 23.6565 14.7607 24.5625C14.7154 25.4683 14.6823 26.435 14.6851 27.295C14.688 28.1516 14.7264 28.914 14.8278 29.4049C14.9305 29.9021 15.2559 30.6389 15.6744 31.4514C16.0954 32.2689 16.6191 33.1783 17.1294 34.0266C17.6398 34.8753 18.1379 35.6642 18.5083 36.2409C18.6935 36.5293 18.8469 36.7647 18.9539 36.9281C19.0075 37.0098 19.0495 37.0734 19.0781 37.1167L19.0969 37.1451V37.6813L18.4672 37.9027C18.4648 37.8994 18.4623 37.8961 18.4598 37.8928C18.4101 37.8265 18.3355 37.7394 18.2353 37.6565C18.0513 37.5041 17.777 37.3632 17.4187 37.3971C17.3914 37.3504 17.3535 37.2858 17.3064 37.2056C17.2022 37.0283 17.0526 36.7746 16.8705 36.469C16.5065 35.8578 16.0129 35.0385 15.4949 34.2067C14.9772 33.3753 14.434 32.5297 13.971 31.8665C13.7396 31.5352 13.5268 31.2472 13.3462 31.0286C13.256 30.9194 13.1722 30.8257 13.0971 30.7518C13.0242 30.6802 12.9507 30.6187 12.8811 30.5833C12.5073 30.3937 12.1212 30.1071 11.8253 29.8642C11.6782 29.7434 11.5549 29.6347 11.4685 29.5563C11.4431 29.5333 11.4209 29.5129 11.4023 29.4956C11.4181 29.447 11.439 29.3803 11.4634 29.2969C11.518 29.1099 11.5898 28.839 11.6594 28.5011C11.7986 27.8257 11.9296 26.8807 11.8963 25.802C11.8639 24.724 11.5948 23.1172 11.3362 21.7882C11.2066 21.1219 11.079 20.5223 10.9838 20.0894C10.9361 19.8729 10.8966 19.698 10.869 19.5772C10.8552 19.5168 10.8443 19.4698 10.837 19.438L10.8356 19.4323L12.6338 14.3477L16.9742 17.1342C16.9724 17.1418 16.9704 17.1499 16.9683 17.1583C16.9483 17.2399 16.9181 17.3581 16.8777 17.5038C16.7967 17.7953 16.6748 18.196 16.511 18.6329C16.1808 19.5137 15.6904 20.5135 15.0421 21.0764Z" fill="white" stroke="black" stroke-width="0.3"/>
<path d="M18.0242 37.7367C18.0242 37.7367 18.4296 37.9747 18.6889 39.0579L21.0687 38.2931C21.0687 38.2931 20.3055 37.2739 19.4094 36.9111C19.3175 36.8734 18.9679 36.6748 18.9679 36.6748L18.0242 37.7367Z" fill="#263238"/>
<path d="M16.8983 8.81303C16.9016 8.81139 16.918 8.85406 16.9459 8.93449C16.9754 9.02311 17.0148 9.13964 17.0657 9.28735C17.0919 9.36449 17.1198 9.44984 17.1494 9.54339C17.1773 9.63858 17.2019 9.74198 17.2331 9.85359C17.2889 10.0768 17.3644 10.3279 17.4136 10.6151C17.4415 10.7579 17.4711 10.9073 17.5006 11.0615C17.5302 11.2175 17.5466 11.3816 17.5712 11.5506C17.6253 11.8871 17.6467 12.2515 17.6762 12.6339C17.7123 13.4003 17.6992 14.2456 17.5991 15.1253C17.4891 16.005 17.3037 16.8305 17.0887 17.5658C16.9688 17.9302 16.8638 18.2798 16.7309 18.5949C16.6669 18.7524 16.6127 18.9084 16.547 19.0528C16.4814 19.1956 16.4174 19.3351 16.3567 19.4664C16.2418 19.7323 16.1088 19.9604 16.0021 20.1639C15.9463 20.2657 15.8987 20.3609 15.8479 20.4462C15.7954 20.5299 15.7478 20.6054 15.7051 20.6743C15.6214 20.8056 15.5557 20.9107 15.5049 20.9895C15.4589 21.0617 15.4326 21.0978 15.431 21.0961C15.4277 21.0945 15.449 21.0551 15.4901 20.9796C15.536 20.8992 15.5984 20.7909 15.6755 20.6563C15.7166 20.5857 15.7625 20.5086 15.8118 20.4249C15.8594 20.3395 15.9053 20.2427 15.9595 20.1409C16.0629 19.9358 16.1909 19.7076 16.3025 19.4418C16.3616 19.3105 16.4223 19.171 16.4863 19.0282C16.5487 18.8837 16.6028 18.7278 16.6636 18.5703C16.7932 18.2568 16.895 17.9072 17.0115 17.5445C17.2216 16.8108 17.4038 15.9902 17.5121 15.1154C17.6122 14.2406 17.627 13.4003 17.5958 12.6371C17.5679 12.2564 17.5498 11.8937 17.499 11.5588C17.476 11.3914 17.4612 11.2273 17.4333 11.0714C17.4054 10.9171 17.3775 10.7678 17.3513 10.625C17.3069 10.3394 17.2347 10.0883 17.1838 9.86343C17.1559 9.75183 17.1346 9.64679 17.1084 9.55324C17.0804 9.45969 17.0542 9.37434 17.0312 9.29556C16.9885 9.14621 16.9524 9.02804 16.9278 8.93777C16.9065 8.85735 16.895 8.81468 16.8983 8.81303Z" fill="#263238"/>
<path d="M5.09451 10.1326C5.09779 10.1326 5.10108 10.1736 5.10436 10.2507C5.10764 10.3361 5.11092 10.4493 5.11585 10.5888C5.12569 10.8826 5.1339 11.3077 5.17165 11.8296C5.21268 12.3515 5.28161 12.9752 5.46707 13.6399C5.56063 13.9714 5.68372 14.3145 5.85441 14.6476C5.94632 14.8101 6.02838 14.9841 6.14327 15.14C6.19907 15.2188 6.24831 15.3041 6.30903 15.3813C6.36976 15.4584 6.43213 15.5356 6.4945 15.6127C7.00492 16.2249 7.6089 16.6992 8.1538 17.1276C8.70362 17.551 9.20092 17.9334 9.59153 18.2879C9.98871 18.6359 10.2644 18.9641 10.4515 19.189C10.5336 19.3039 10.5993 19.3941 10.6485 19.4647C10.6928 19.5287 10.7141 19.5632 10.7125 19.5648C10.7109 19.5665 10.683 19.5353 10.6354 19.4762C10.5828 19.4089 10.5123 19.3203 10.4269 19.212C10.2316 18.9937 9.95097 18.6736 9.55214 18.3339C9.15824 17.9876 8.6593 17.6117 8.1062 17.1916C7.55803 16.7665 6.94912 16.2905 6.43049 15.6701C6.36812 15.5914 6.30575 15.5126 6.24339 15.4354C6.18102 15.3567 6.13178 15.2713 6.07434 15.1909C5.95781 15.0317 5.8741 14.8561 5.78219 14.6887C5.60986 14.3489 5.48677 14.001 5.39486 13.6645C5.2094 12.99 5.14703 12.3614 5.11421 11.8362C5.08466 11.311 5.08302 10.8843 5.08466 10.5905C5.0863 10.451 5.08795 10.3377 5.08959 10.2524C5.08795 10.172 5.09123 10.1326 5.09451 10.1326Z" fill="#263238"/>
<path d="M2.12545 39.0277H0.97978L0.151418 38.0635L0.449998 26.3053C1.74196 25.4043 2.70938 23.8384 3.43027 22.3225C3.9362 21.2586 4.33021 20.1964 4.62763 19.3945C4.76006 19.0375 4.87333 18.7321 4.96881 18.5011C5.29956 17.7012 5.34224 16.7266 5.28744 15.8302C5.24447 15.1273 5.14017 14.4577 5.06041 13.9457C5.03846 13.8048 5.01837 13.6759 5.00193 13.5614C4.92098 12.8677 4.95214 12.2165 5.00912 11.6918C5.02922 11.8435 5.05092 12.0025 5.07395 12.1644C5.1375 12.6112 5.21135 13.0819 5.28974 13.4863C5.36704 13.8852 5.45167 14.236 5.54042 14.4321C5.97588 15.3945 7.04456 16.5912 8.16214 17.3751C9.13427 18.1129 9.54195 18.4561 9.80566 18.7259C9.93676 18.8601 10.0335 18.9773 10.1489 19.1206C10.1615 19.1363 10.1744 19.1523 10.1875 19.1686C10.2759 19.2785 10.3769 19.4041 10.5103 19.5602C10.0326 20.0562 8.93579 21.0821 7.74476 22.1962C7.1009 22.7984 6.42951 23.4264 5.8135 24.0104L5.81344 24.0105C5.16766 24.6234 4.55997 25.2056 4.06891 25.7038C3.58106 26.1989 3.19808 26.6211 3.01042 26.9117C2.56254 27.6049 2.21751 28.7962 1.9831 30.2394C1.74771 31.6888 1.62091 33.4121 1.62091 35.1846C1.62091 37.0015 1.73541 37.9726 1.89403 38.5163C1.96213 38.7497 2.04013 38.9107 2.12545 39.0277Z" fill="#1DA1F3" stroke="black" stroke-width="0.3"/>
<path d="M36.4292 9.29218C36.4308 9.2889 36.4505 9.30038 36.4899 9.32336C36.5276 9.34634 36.5802 9.38573 36.6392 9.44646C36.7591 9.56627 36.8904 9.78291 36.9659 10.0751C37.0463 10.3672 37.0742 10.7233 37.0988 11.1172C37.1234 11.5111 37.1333 11.9444 37.1201 12.4007C37.0955 13.3116 36.9773 14.1306 36.8625 14.7149C36.8034 15.007 36.7476 15.2417 36.7033 15.4025C36.6589 15.5634 36.6327 15.652 36.6261 15.6504C36.6212 15.6487 36.636 15.5585 36.6704 15.396C36.7033 15.2335 36.7508 14.9972 36.8017 14.705C36.9018 14.1191 37.0085 13.305 37.0331 12.3991C37.0463 11.9461 37.0397 11.5144 37.0184 11.1222C36.997 10.7299 36.9757 10.377 36.9051 10.0915C36.8378 9.80425 36.7213 9.59253 36.613 9.46943C36.5063 9.34634 36.4242 9.30038 36.4292 9.29218Z" fill="#263238"/>
<path d="M28.0555 12.5879C28.062 12.5879 28.0719 12.6913 28.085 12.8768C28.0998 13.0639 28.1162 13.333 28.1539 13.6662C28.1933 13.9977 28.2458 14.3916 28.3689 14.8151C28.4904 15.2352 28.6857 15.6849 29.0008 16.0805C29.3143 16.4777 29.6885 16.7911 30.0332 17.0652C30.3811 17.3327 30.6962 17.5756 30.9638 17.7824C31.2198 17.9827 31.4299 18.1468 31.5891 18.2699C31.7351 18.3864 31.8139 18.4537 31.8106 18.4586C31.8074 18.4636 31.7204 18.4061 31.5677 18.2962C31.4052 18.178 31.1886 18.0204 30.926 17.83C30.6568 17.6298 30.3352 17.3967 29.9823 17.1259C29.6327 16.8535 29.2519 16.5384 28.9319 16.1313C28.6086 15.726 28.41 15.2631 28.2918 14.8348C28.172 14.4048 28.1244 14.0043 28.0932 13.6711C28.0637 13.3363 28.0555 13.0655 28.0522 12.8784C28.0522 12.793 28.0505 12.7225 28.0505 12.6634C28.0522 12.6142 28.0538 12.5879 28.0555 12.5879Z" fill="#263238"/>
<path d="M0 38.1174C0 38.1174 0.896122 38.8166 0.709019 39.9999H3.41708C3.41708 39.9999 3.18566 38.7854 1.93503 38.2225L0 38.1174Z" fill="#263238"/>
<path d="M51.0955 3.63489C51.0955 3.45928 51.2448 3.46584 51.4221 3.41004C51.5107 3.38214 51.6781 3.39198 51.7585 3.44122C51.8668 3.50687 51.8767 3.52493 51.8915 3.6513C51.8997 3.71695 51.8816 3.81707 51.8471 3.87287C51.8127 3.92703 51.7536 3.99761 51.6912 4.01074C51.4368 4.05997 51.1463 3.99268 51.0955 3.63489Z" fill="#1DA1F3"/>
</svg>
