<svg width="26" height="26" viewBox="0 0 26 26" fill="none" xmlns="http://www.w3.org/2000/svg">
<path d="M18.0781 8.83331C19.804 8.83331 21.2031 7.4342 21.2031 5.70831C21.2031 3.98242 19.804 2.58331 18.0781 2.58331C16.3522 2.58331 14.9531 3.98242 14.9531 5.70831C14.9531 7.4342 16.3522 8.83331 18.0781 8.83331Z" stroke="#212121" stroke-width="1.5" stroke-linecap="round" stroke-linejoin="round"/>
<path d="M5.57812 16.1249C7.30401 16.1249 8.70312 14.7258 8.70312 12.9999C8.70312 11.274 7.30401 9.87494 5.57812 9.87494C3.85224 9.87494 2.45312 11.274 2.45312 12.9999C2.45312 14.7258 3.85224 16.1249 5.57812 16.1249Z" stroke="#212121" stroke-width="1.5" stroke-linecap="round" stroke-linejoin="round"/>
<path d="M18.0781 23.4166C19.804 23.4166 21.2031 22.0175 21.2031 20.2916C21.2031 18.5657 19.804 17.1666 18.0781 17.1666C16.3522 17.1666 14.9531 18.5657 14.9531 20.2916C14.9531 22.0175 16.3522 23.4166 18.0781 23.4166Z" stroke="#212121" stroke-width="1.5" stroke-linecap="round" stroke-linejoin="round"/>
<path d="M8.27612 14.5729L15.3907 18.7187" stroke="#212121" stroke-width="1.5" stroke-linecap="round" stroke-linejoin="round"/>
<path d="M15.3803 7.28113L8.27612 11.427" stroke="#212121" stroke-width="1.5" stroke-linecap="round" stroke-linejoin="round"/>
</svg>
