<svg width="53" height="40" viewBox="0 0 53 40" fill="none" xmlns="http://www.w3.org/2000/svg">
<path d="M8.8451 39.4663L3.46629 39.4769C3.01806 39.4769 2.54846 39.018 2.54846 38.4631L2.60184 23.5753C2.60184 22.8069 3.31688 22.4227 3.76511 22.4227L9.04788 22.4868C9.49611 22.4868 10.0297 22.9457 10.019 23.5006L9.99769 38.2817C9.98702 38.8366 9.51745 39.4663 8.8451 39.4663Z" fill="#1DA1F3"/>
<path d="M3.46651 40C3.10366 40 2.7408 39.8292 2.46332 39.5411C2.18584 39.2423 2.02576 38.8581 2.02576 38.4632L2.07914 23.5754C2.07914 22.4869 3.06096 21.8999 3.75465 21.8999L9.03742 21.9639C9.40028 21.9639 9.7738 22.1347 10.0726 22.4335C10.3714 22.7323 10.5315 23.1165 10.5315 23.5007L10.5102 38.2818C10.5102 39.0929 9.82717 39.9893 8.84533 39.9893L3.46651 40ZM3.75465 22.9458C3.5839 22.9458 3.125 23.1379 3.125 23.5754L3.07165 38.4632C3.07165 38.5913 3.12499 38.7193 3.22104 38.8154C3.30642 38.9114 3.41315 38.9541 3.46651 38.9541L8.84533 38.9435C9.21886 38.9435 9.4643 38.5379 9.4643 38.2711L9.48563 23.4901C9.48563 23.3727 9.43229 23.2553 9.33624 23.1592C9.22952 23.0525 9.10145 22.9991 9.03742 22.9991L3.75465 22.9458Z" fill="black"/>
<path d="M49.2182 39.4663L43.8394 39.4769C43.3912 39.4769 42.9216 39.018 42.9216 38.4631L42.975 23.5753C42.975 22.8069 43.69 22.4227 44.1382 22.4227L49.421 22.4868C49.8692 22.4868 50.4029 22.9457 50.3922 23.5006L50.3709 38.2817C50.3602 38.8366 49.8799 39.4663 49.2182 39.4663Z" fill="#1DA1F3"/>
<path d="M43.8395 40C43.4873 40 43.1352 39.8399 42.8577 39.5624C42.5589 39.2636 42.3988 38.8687 42.3988 38.4632L42.4522 23.5754C42.4522 22.4869 43.4233 21.8999 44.1277 21.8999L49.4104 21.9639C49.7733 21.9639 50.1468 22.1347 50.4456 22.4335C50.7445 22.7323 50.9046 23.1165 50.9046 23.5007L50.8832 38.2818C50.8832 39.0929 50.2002 39.9893 49.2183 39.9893L43.8395 40ZM44.117 22.9458C43.9463 22.9458 43.4874 23.1379 43.4874 23.5754L43.434 38.4632C43.434 38.5913 43.4874 38.73 43.5941 38.8261C43.6901 38.9221 43.7755 38.9541 43.8289 38.9541L49.2077 38.9435C49.5812 38.9435 49.8267 38.5379 49.8267 38.2711L49.848 23.4901C49.848 23.3727 49.7947 23.2553 49.6986 23.1592C49.5919 23.0525 49.4638 22.9991 49.3998 22.9991L44.117 22.9458Z" fill="black"/>
<path d="M51.7265 31.174C51.8118 26.585 52.2601 22.2734 52.1533 17.695C52.1427 17.2788 52.1213 16.8412 51.9292 16.489C51.6838 16.0408 48.4074 14.1838 46.3263 13.3087C45.1951 9.98964 42.0894 2.97799 41.4598 2.06018C40.8728 1.21707 40.0084 0.566072 39.0799 0.566072C31.5239 0.512711 23.8079 0.534055 16.0919 0.566072C15.2488 0.566072 14.363 0.587412 13.6373 1.07833C12.9116 1.57993 12.4633 2.4764 12.0471 3.33017C10.489 6.55319 8.93083 9.7762 7.27664 13.234C5.75051 14.0131 4.23505 14.7815 2.70893 15.5605C2.27136 15.7847 1.82311 16.0088 1.49228 16.4037C0.873286 17.1294 0.745209 18.2393 0.681176 19.2638C0.435714 23.3726 0.510436 26.6063 0.830603 30.9499C0.691864 33.2765 6.08133 32.9776 8.72805 32.9776C22.4632 33.0096 35.2485 33.0523 48.9837 33.0844C49.624 33.0844 50.2964 33.0843 50.8727 32.7535C51.449 32.4227 51.7158 31.7183 51.7265 31.174Z" fill="white"/>
<path d="M49.1116 33.6073C49.0689 33.6073 49.0262 33.6073 48.9835 33.6073L8.7279 33.5006C8.47176 33.5006 8.18363 33.5006 7.87413 33.5006C5.39818 33.522 2.02574 33.5433 0.787757 32.2519C0.446246 31.8891 0.275499 31.4409 0.296843 30.95C-0.0446678 26.2862 -0.0873723 23.1059 0.147417 19.2318C0.21145 18.1433 0.350216 16.916 1.07593 16.0622C1.48147 15.5926 2.00439 15.3258 2.45262 15.091L6.86026 12.8498C8.48244 9.43473 10.0406 6.21172 11.556 3.09543C11.9616 2.26299 12.4632 1.22778 13.3276 0.640811C14.2027 0.0431661 15.238 0.0431746 16.0704 0.0325023C23.5089 0.000485636 31.4384 -0.0208588 39.0584 0.0325023C40.0829 0.0325023 41.1075 0.662165 41.8652 1.75073C42.5482 2.74325 45.5471 9.54146 46.721 12.9032C48.5246 13.693 51.9931 15.5499 52.3667 16.2223C52.6335 16.6919 52.6441 17.2575 52.6548 17.6737C52.7188 20.4805 52.5801 23.2233 52.4413 25.8806C52.356 27.5989 52.2599 29.3811 52.2279 31.1741C52.2172 31.8251 51.9184 32.7429 51.118 33.2018C50.467 33.586 49.7306 33.6073 49.1116 33.6073ZM8.63185 32.4547C8.66387 32.4547 8.69588 32.4547 8.7279 32.4547L48.9835 32.5615C49.5492 32.5615 50.1468 32.5615 50.6164 32.2946C51.0006 32.0705 51.1927 31.5476 51.2034 31.1527C51.2354 29.3384 51.3314 27.5562 51.4168 25.8273C51.5555 23.1912 51.6943 20.4591 51.6196 17.695C51.6089 17.3749 51.5982 16.98 51.4595 16.7345C51.1607 16.3824 48.2045 14.6641 46.1021 13.7783C45.9633 13.725 45.8566 13.6076 45.8139 13.4688C44.704 10.2031 41.5984 3.19148 41.0114 2.34837C40.4564 1.54796 39.7201 1.07838 39.0584 1.07838C31.4384 1.02501 23.5089 1.04636 16.0811 1.07838C15.3554 1.07838 14.5336 1.08904 13.9253 1.50526C13.2956 1.93215 12.8794 2.7966 12.5059 3.55433C10.9691 6.7133 9.38958 9.98968 7.73539 13.4582C7.68203 13.5649 7.60732 13.6503 7.5006 13.7036L2.93289 16.0302C2.54869 16.2223 2.14315 16.4357 1.87635 16.7452C1.35341 17.3535 1.24667 18.3781 1.19331 19.2959C0.958518 23.1272 1.00122 26.2755 1.34273 30.9073C1.34273 30.9286 1.34273 30.95 1.34273 30.982C1.33206 31.2061 1.3961 31.3768 1.54551 31.5369C2.46332 32.5081 5.8464 32.4761 7.86345 32.4654C8.14093 32.4547 8.39706 32.4547 8.63185 32.4547Z" fill="black"/>
<path d="M12.0044 13.5115C13.3811 10.5019 15.1634 5.22981 16.4227 4.62149C17.2444 4.22662 28.0021 4.39738 33.8825 4.37604C35.1204 4.37604 36.5185 4.42939 37.3723 5.42191C37.8205 5.94485 41.2036 13.2874 41.2036 13.2874L12.0044 13.5115Z" fill="white"/>
<path d="M12.0042 14.0344C11.8228 14.0344 11.6627 13.949 11.5666 13.7996C11.4706 13.6502 11.4599 13.4581 11.5346 13.298C11.9081 12.4762 12.3137 11.4944 12.7406 10.4592C14.2134 6.86264 15.1845 4.64283 16.2091 4.15191C16.8601 3.84241 20.7234 3.82106 28.7809 3.8424C30.6379 3.85308 32.4095 3.85307 33.8823 3.85307C35.2376 3.8424 36.7851 3.93846 37.7669 5.08039C38.2259 5.614 40.8726 11.3343 41.673 13.0739C41.7477 13.234 41.737 13.4261 41.641 13.5755C41.5449 13.7249 41.3848 13.8209 41.2034 13.8209L12.0042 14.0344ZM24.6828 4.87761C20.8515 4.87761 17.1589 4.90964 16.6466 5.10174C15.9209 5.45392 14.6402 8.57021 13.7118 10.8541C13.4023 11.6011 13.1034 12.3268 12.826 12.9885L40.403 12.7751C38.8875 9.49868 37.2547 6.10493 36.9879 5.75274C36.3049 4.95233 35.0882 4.88829 33.9036 4.89896C32.4308 4.90963 30.6486 4.89895 28.7916 4.88828C27.4896 4.88828 26.0702 4.87761 24.6828 4.87761Z" fill="black"/>
<path d="M22.6231 25.8059C20.4033 25.8059 18.1834 25.7953 15.9636 25.7846C15.8676 25.7846 15.7928 25.7099 15.7928 25.6139C15.7928 25.5178 15.8676 25.4431 15.9636 25.4431C22.9432 25.4965 30.0083 25.4644 36.9772 25.3577C37.0626 25.347 37.148 25.4324 37.1587 25.5285C37.1587 25.6245 37.084 25.6992 36.9879 25.7099C32.2281 25.7739 27.4149 25.8059 22.6231 25.8059Z" fill="black"/>
<path d="M22.6231 21.8679C20.4033 21.8679 18.1728 21.8572 15.9636 21.8466C15.8676 21.8466 15.7928 21.7719 15.7928 21.6758C15.7928 21.5798 15.8676 21.5051 15.9636 21.5051C22.9326 21.5584 29.9976 21.5264 36.9772 21.4197C37.0626 21.4197 37.148 21.4944 37.1587 21.5904C37.1587 21.6865 37.084 21.7612 36.9879 21.7719C32.2174 21.8252 27.4149 21.8679 22.6231 21.8679Z" fill="black"/>
<path d="M45.7286 11.6758C45.4831 11.6758 45.2697 11.505 45.2163 11.2489C45.163 10.9607 45.3444 10.6939 45.6326 10.6406C47.4362 10.2884 49.2824 10.1497 51.1181 10.235C51.4062 10.2457 51.6303 10.4912 51.6197 10.7793C51.609 11.0675 51.3635 11.2916 51.0754 11.2809C49.3251 11.2062 47.5642 11.3343 45.8353 11.6651C45.7926 11.6758 45.7606 11.6758 45.7286 11.6758Z" fill="black"/>
<path d="M7.88469 11.8147C7.82065 11.8147 7.75663 11.804 7.69259 11.772C6.46529 11.2704 3.37036 11.089 2.07902 11.2384C1.79087 11.2704 1.53473 11.0676 1.50271 10.7795C1.4707 10.4913 1.67346 10.2352 1.96161 10.2032C3.39169 10.0431 6.66805 10.2245 8.08746 10.8008C8.35427 10.9076 8.48235 11.2171 8.37563 11.4839C8.29025 11.6973 8.09813 11.8147 7.88469 11.8147Z" fill="black"/>
<path d="M4.38426 21.5477C4.10678 21.5477 3.872 21.3236 3.86133 21.0461C3.85066 20.7579 4.07477 20.5125 4.36292 20.5018C6.44401 20.4058 8.55713 20.3524 10.6489 20.3311C10.6489 20.3311 10.6489 20.3311 10.6595 20.3311C10.9477 20.3311 11.1825 20.5659 11.1825 20.8433C11.1825 21.1315 10.9584 21.3663 10.6702 21.3663C8.58913 21.3876 6.48668 21.4516 4.41627 21.537C4.39493 21.5477 4.38426 21.5477 4.38426 21.5477Z" fill="black"/>
<path d="M42.591 21.4623C42.3136 21.4623 42.0788 21.2489 42.0681 20.9608C42.0574 20.6726 42.2815 20.4271 42.5697 20.4165C44.6614 20.3204 46.7746 20.2671 48.8556 20.2457C49.1438 20.235 49.3786 20.4698 49.3786 20.758C49.3786 21.0461 49.1545 21.2809 48.8663 21.2809C46.7959 21.3023 44.6935 21.3663 42.6124 21.4517C42.6017 21.4624 42.6017 21.4623 42.591 21.4623Z" fill="black"/>
</svg>
